<?xml version="1.0" encoding="UTF-8" standalone="no"?>
<!DOCTYPE svg PUBLIC "-//W3C//DTD SVG 1.1//EN"
 "http://www.w3.org/Graphics/SVG/1.1/DTD/svg11.dtd">
<!-- Generated by graphviz version 2.36.0 (20140111.2315)
 -->
<!-- Title: controllers_diagram Pages: 1 -->
<svg width="888pt" height="902pt"
 viewBox="0.00 0.00 888.00 902.00" xmlns="http://www.w3.org/2000/svg" xmlns:xlink="http://www.w3.org/1999/xlink">
<g id="graph0" class="graph" transform="scale(1 1) rotate(0) translate(4 898)">
<title>controllers_diagram</title>
<polygon fill="white" stroke="none" points="-4,4 -4,-898 884,-898 884,4 -4,4"/>
<!-- _diagram_info -->
<g id="node1" class="node"><title>_diagram_info</title>
<text text-anchor="start" x="408" y="-183.6" font-family="Times,serif" font-size="13.00">Controllers diagram</text>
<text text-anchor="start" x="408" y="-169.6" font-family="Times,serif" font-size="13.00">Date: Dec 10 2014 &#45; 10:59</text>
<text text-anchor="start" x="408" y="-155.6" font-family="Times,serif" font-size="13.00">Migration version: 20141210104327</text>
<text text-anchor="start" x="408" y="-141.6" font-family="Times,serif" font-size="13.00">Generated by RailRoady 1.2.0</text>
<text text-anchor="start" x="408" y="-127.6" font-family="Times,serif" font-size="13.00">http://railroady.prestonlee.com</text>
</g>
<!-- PasswordResetsController -->
<g id="node2" class="node"><title>PasswordResetsController</title>
<path fill="none" stroke="black" d="M12,-380.5C12,-380.5 147,-380.5 147,-380.5 153,-380.5 159,-386.5 159,-392.5 159,-392.5 159,-581.5 159,-581.5 159,-587.5 153,-593.5 147,-593.5 147,-593.5 12,-593.5 12,-593.5 6,-593.5 0,-587.5 0,-581.5 0,-581.5 0,-392.5 0,-392.5 0,-386.5 6,-380.5 12,-380.5"/>
<text text-anchor="middle" x="79.5" y="-578.3" font-family="Times,serif" font-size="14.00">PasswordResetsController</text>
<polyline fill="none" stroke="black" points="0,-570.5 159,-570.5 "/>
<text text-anchor="start" x="8" y="-555.3" font-family="Times,serif" font-size="14.00">create</text>
<text text-anchor="start" x="8" y="-540.3" font-family="Times,serif" font-size="14.00">edit</text>
<text text-anchor="start" x="8" y="-525.3" font-family="Times,serif" font-size="14.00">new</text>
<text text-anchor="start" x="8" y="-510.3" font-family="Times,serif" font-size="14.00">update</text>
<polyline fill="none" stroke="black" points="0,-502.5 159,-502.5 "/>
<polyline fill="none" stroke="black" points="0,-478.5 159,-478.5 "/>
<text text-anchor="start" x="8" y="-463.3" font-family="Times,serif" font-size="14.00">_layout</text>
<text text-anchor="start" x="8" y="-448.3" font-family="Times,serif" font-size="14.00">both_passwords_blank?</text>
<text text-anchor="start" x="8" y="-433.3" font-family="Times,serif" font-size="14.00">check_expiration</text>
<text text-anchor="start" x="8" y="-418.3" font-family="Times,serif" font-size="14.00">get_user</text>
<text text-anchor="start" x="8" y="-403.3" font-family="Times,serif" font-size="14.00">user_params</text>
<text text-anchor="start" x="8" y="-388.3" font-family="Times,serif" font-size="14.00">valid_user</text>
</g>
<!-- ApplicationController -->
<g id="node3" class="node"><title>ApplicationController</title>
<path fill="none" stroke="black" d="M712,-600.5C712,-600.5 824,-600.5 824,-600.5 830,-600.5 836,-606.5 836,-612.5 836,-612.5 836,-682.5 836,-682.5 836,-688.5 830,-694.5 824,-694.5 824,-694.5 712,-694.5 712,-694.5 706,-694.5 700,-688.5 700,-682.5 700,-682.5 700,-612.5 700,-612.5 700,-606.5 706,-600.5 712,-600.5"/>
<text text-anchor="middle" x="768" y="-679.3" font-family="Times,serif" font-size="14.00">ApplicationController</text>
<polyline fill="none" stroke="black" points="700,-671.5 836,-671.5 "/>
<polyline fill="none" stroke="black" points="700,-647.5 836,-647.5 "/>
<polyline fill="none" stroke="black" points="700,-623.5 836,-623.5 "/>
<text text-anchor="start" x="708" y="-608.3" font-family="Times,serif" font-size="14.00">_layout</text>
</g>
<!-- StaticPagesController -->
<g id="node4" class="node"><title>StaticPagesController</title>
<path fill="none" stroke="black" d="M712,-280.5C712,-280.5 822,-280.5 822,-280.5 828,-280.5 834,-286.5 834,-292.5 834,-292.5 834,-406.5 834,-406.5 834,-412.5 828,-418.5 822,-418.5 822,-418.5 712,-418.5 712,-418.5 706,-418.5 700,-412.5 700,-406.5 700,-406.5 700,-292.5 700,-292.5 700,-286.5 706,-280.5 712,-280.5"/>
<text text-anchor="middle" x="767" y="-403.3" font-family="Times,serif" font-size="14.00">StaticPagesController</text>
<polyline fill="none" stroke="black" points="700,-395.5 834,-395.5 "/>
<text text-anchor="start" x="708" y="-380.3" font-family="Times,serif" font-size="14.00">about</text>
<text text-anchor="start" x="708" y="-365.3" font-family="Times,serif" font-size="14.00">contact</text>
<text text-anchor="start" x="708" y="-350.3" font-family="Times,serif" font-size="14.00">help</text>
<text text-anchor="start" x="708" y="-335.3" font-family="Times,serif" font-size="14.00">home</text>
<polyline fill="none" stroke="black" points="700,-327.5 834,-327.5 "/>
<polyline fill="none" stroke="black" points="700,-303.5 834,-303.5 "/>
<text text-anchor="start" x="708" y="-288.3" font-family="Times,serif" font-size="14.00">_layout</text>
</g>
<!-- ProductCategorySizesController -->
<g id="node5" class="node"><title>ProductCategorySizesController</title>
<path fill="none" stroke="black" d="M472,-500.5C472,-500.5 640,-500.5 640,-500.5 646,-500.5 652,-506.5 652,-512.5 652,-512.5 652,-701.5 652,-701.5 652,-707.5 646,-713.5 640,-713.5 640,-713.5 472,-713.5 472,-713.5 466,-713.5 460,-707.5 460,-701.5 460,-701.5 460,-512.5 460,-512.5 460,-506.5 466,-500.5 472,-500.5"/>
<text text-anchor="middle" x="556" y="-698.3" font-family="Times,serif" font-size="14.00">ProductCategorySizesController</text>
<polyline fill="none" stroke="black" points="460,-690.5 652,-690.5 "/>
<text text-anchor="start" x="468" y="-675.3" font-family="Times,serif" font-size="14.00">create</text>
<text text-anchor="start" x="468" y="-660.3" font-family="Times,serif" font-size="14.00">destroy</text>
<text text-anchor="start" x="468" y="-645.3" font-family="Times,serif" font-size="14.00">edit</text>
<text text-anchor="start" x="468" y="-630.3" font-family="Times,serif" font-size="14.00">index</text>
<text text-anchor="start" x="468" y="-615.3" font-family="Times,serif" font-size="14.00">new</text>
<text text-anchor="start" x="468" y="-600.3" font-family="Times,serif" font-size="14.00">show</text>
<text text-anchor="start" x="468" y="-585.3" font-family="Times,serif" font-size="14.00">update</text>
<polyline fill="none" stroke="black" points="460,-577.5 652,-577.5 "/>
<polyline fill="none" stroke="black" points="460,-553.5 652,-553.5 "/>
<text text-anchor="start" x="468" y="-538.3" font-family="Times,serif" font-size="14.00">_layout</text>
<text text-anchor="start" x="468" y="-523.3" font-family="Times,serif" font-size="14.00">product_category_size_params</text>
<text text-anchor="start" x="468" y="-508.3" font-family="Times,serif" font-size="14.00">set_product_category_size</text>
</g>
<!-- ProductAddOnsController -->
<g id="node6" class="node"><title>ProductAddOnsController</title>
<path fill="none" stroke="black" d="M12,-120.5C12,-120.5 147,-120.5 147,-120.5 153,-120.5 159,-126.5 159,-132.5 159,-132.5 159,-321.5 159,-321.5 159,-327.5 153,-333.5 147,-333.5 147,-333.5 12,-333.5 12,-333.5 6,-333.5 0,-327.5 0,-321.5 0,-321.5 0,-132.5 0,-132.5 0,-126.5 6,-120.5 12,-120.5"/>
<text text-anchor="middle" x="79.5" y="-318.3" font-family="Times,serif" font-size="14.00">ProductAddOnsController</text>
<polyline fill="none" stroke="black" points="0,-310.5 159,-310.5 "/>
<text text-anchor="start" x="8" y="-295.3" font-family="Times,serif" font-size="14.00">create</text>
<text text-anchor="start" x="8" y="-280.3" font-family="Times,serif" font-size="14.00">destroy</text>
<text text-anchor="start" x="8" y="-265.3" font-family="Times,serif" font-size="14.00">edit</text>
<text text-anchor="start" x="8" y="-250.3" font-family="Times,serif" font-size="14.00">index</text>
<text text-anchor="start" x="8" y="-235.3" font-family="Times,serif" font-size="14.00">new</text>
<text text-anchor="start" x="8" y="-220.3" font-family="Times,serif" font-size="14.00">show</text>
<text text-anchor="start" x="8" y="-205.3" font-family="Times,serif" font-size="14.00">update</text>
<polyline fill="none" stroke="black" points="0,-197.5 159,-197.5 "/>
<polyline fill="none" stroke="black" points="0,-173.5 159,-173.5 "/>
<text text-anchor="start" x="8" y="-158.3" font-family="Times,serif" font-size="14.00">_layout</text>
<text text-anchor="start" x="8" y="-143.3" font-family="Times,serif" font-size="14.00">product_add_on_params</text>
<text text-anchor="start" x="8" y="-128.3" font-family="Times,serif" font-size="14.00">set_product_add_on</text>
</g>
<!-- ProductCategoriesController -->
<g id="node7" class="node"><title>ProductCategoriesController</title>
<path fill="none" stroke="black" d="M252,-520.5C252,-520.5 400,-520.5 400,-520.5 406,-520.5 412,-526.5 412,-532.5 412,-532.5 412,-721.5 412,-721.5 412,-727.5 406,-733.5 400,-733.5 400,-733.5 252,-733.5 252,-733.5 246,-733.5 240,-727.5 240,-721.5 240,-721.5 240,-532.5 240,-532.5 240,-526.5 246,-520.5 252,-520.5"/>
<text text-anchor="middle" x="326" y="-718.3" font-family="Times,serif" font-size="14.00">ProductCategoriesController</text>
<polyline fill="none" stroke="black" points="240,-710.5 412,-710.5 "/>
<text text-anchor="start" x="248" y="-695.3" font-family="Times,serif" font-size="14.00">create</text>
<text text-anchor="start" x="248" y="-680.3" font-family="Times,serif" font-size="14.00">destroy</text>
<text text-anchor="start" x="248" y="-665.3" font-family="Times,serif" font-size="14.00">edit</text>
<text text-anchor="start" x="248" y="-650.3" font-family="Times,serif" font-size="14.00">index</text>
<text text-anchor="start" x="248" y="-635.3" font-family="Times,serif" font-size="14.00">new</text>
<text text-anchor="start" x="248" y="-620.3" font-family="Times,serif" font-size="14.00">show</text>
<text text-anchor="start" x="248" y="-605.3" font-family="Times,serif" font-size="14.00">update</text>
<polyline fill="none" stroke="black" points="240,-597.5 412,-597.5 "/>
<polyline fill="none" stroke="black" points="240,-573.5 412,-573.5 "/>
<text text-anchor="start" x="248" y="-558.3" font-family="Times,serif" font-size="14.00">_layout</text>
<text text-anchor="start" x="248" y="-543.3" font-family="Times,serif" font-size="14.00">product_category_params</text>
<text text-anchor="start" x="248" y="-528.3" font-family="Times,serif" font-size="14.00">set_product_category</text>
</g>
<!-- SessionsController -->
<g id="node8" class="node"><title>SessionsController</title>
<path fill="none" stroke="black" d="M712,-740.5C712,-740.5 807,-740.5 807,-740.5 813,-740.5 819,-746.5 819,-752.5 819,-752.5 819,-851.5 819,-851.5 819,-857.5 813,-863.5 807,-863.5 807,-863.5 712,-863.5 712,-863.5 706,-863.5 700,-857.5 700,-851.5 700,-851.5 700,-752.5 700,-752.5 700,-746.5 706,-740.5 712,-740.5"/>
<text text-anchor="middle" x="759.5" y="-848.3" font-family="Times,serif" font-size="14.00">SessionsController</text>
<polyline fill="none" stroke="black" points="700,-840.5 819,-840.5 "/>
<text text-anchor="start" x="708" y="-825.3" font-family="Times,serif" font-size="14.00">create</text>
<text text-anchor="start" x="708" y="-810.3" font-family="Times,serif" font-size="14.00">destroy</text>
<text text-anchor="start" x="708" y="-795.3" font-family="Times,serif" font-size="14.00">new</text>
<polyline fill="none" stroke="black" points="700,-787.5 819,-787.5 "/>
<polyline fill="none" stroke="black" points="700,-763.5 819,-763.5 "/>
<text text-anchor="start" x="708" y="-748.3" font-family="Times,serif" font-size="14.00">_layout</text>
</g>
<!-- ProductGroupAddOnListsController -->
<g id="node9" class="node"><title>ProductGroupAddOnListsController</title>
<path fill="none" stroke="black" d="M212,-260.5C212,-260.5 403,-260.5 403,-260.5 409,-260.5 415,-266.5 415,-272.5 415,-272.5 415,-461.5 415,-461.5 415,-467.5 409,-473.5 403,-473.5 403,-473.5 212,-473.5 212,-473.5 206,-473.5 200,-467.5 200,-461.5 200,-461.5 200,-272.5 200,-272.5 200,-266.5 206,-260.5 212,-260.5"/>
<text text-anchor="middle" x="307.5" y="-458.3" font-family="Times,serif" font-size="14.00">ProductGroupAddOnListsController</text>
<polyline fill="none" stroke="black" points="200,-450.5 415,-450.5 "/>
<text text-anchor="start" x="208" y="-435.3" font-family="Times,serif" font-size="14.00">create</text>
<text text-anchor="start" x="208" y="-420.3" font-family="Times,serif" font-size="14.00">destroy</text>
<text text-anchor="start" x="208" y="-405.3" font-family="Times,serif" font-size="14.00">edit</text>
<text text-anchor="start" x="208" y="-390.3" font-family="Times,serif" font-size="14.00">index</text>
<text text-anchor="start" x="208" y="-375.3" font-family="Times,serif" font-size="14.00">new</text>
<text text-anchor="start" x="208" y="-360.3" font-family="Times,serif" font-size="14.00">show</text>
<text text-anchor="start" x="208" y="-345.3" font-family="Times,serif" font-size="14.00">update</text>
<polyline fill="none" stroke="black" points="200,-337.5 415,-337.5 "/>
<polyline fill="none" stroke="black" points="200,-313.5 415,-313.5 "/>
<text text-anchor="start" x="208" y="-298.3" font-family="Times,serif" font-size="14.00">_layout</text>
<text text-anchor="start" x="208" y="-283.3" font-family="Times,serif" font-size="14.00">product_group_add_on_list_params</text>
<text text-anchor="start" x="208" y="-268.3" font-family="Times,serif" font-size="14.00">set_product_group_add_on_list</text>
</g>
<!-- UsersController -->
<g id="node10" class="node"><title>UsersController</title>
<path fill="none" stroke="black" d="M712,-0.5C712,-0.5 791,-0.5 791,-0.5 797,-0.5 803,-6.5 803,-12.5 803,-12.5 803,-231.5 803,-231.5 803,-237.5 797,-243.5 791,-243.5 791,-243.5 712,-243.5 712,-243.5 706,-243.5 700,-237.5 700,-231.5 700,-231.5 700,-12.5 700,-12.5 700,-6.5 706,-0.5 712,-0.5"/>
<text text-anchor="middle" x="751.5" y="-228.3" font-family="Times,serif" font-size="14.00">UsersController</text>
<polyline fill="none" stroke="black" points="700,-220.5 803,-220.5 "/>
<text text-anchor="start" x="708" y="-205.3" font-family="Times,serif" font-size="14.00">create</text>
<text text-anchor="start" x="708" y="-190.3" font-family="Times,serif" font-size="14.00">destroy</text>
<text text-anchor="start" x="708" y="-175.3" font-family="Times,serif" font-size="14.00">edit</text>
<text text-anchor="start" x="708" y="-160.3" font-family="Times,serif" font-size="14.00">index</text>
<text text-anchor="start" x="708" y="-145.3" font-family="Times,serif" font-size="14.00">new</text>
<text text-anchor="start" x="708" y="-130.3" font-family="Times,serif" font-size="14.00">show</text>
<text text-anchor="start" x="708" y="-115.3" font-family="Times,serif" font-size="14.00">update</text>
<polyline fill="none" stroke="black" points="700,-107.5 803,-107.5 "/>
<polyline fill="none" stroke="black" points="700,-83.5 803,-83.5 "/>
<text text-anchor="start" x="708" y="-68.3" font-family="Times,serif" font-size="14.00">_layout</text>
<text text-anchor="start" x="708" y="-53.3" font-family="Times,serif" font-size="14.00">admin_user</text>
<text text-anchor="start" x="708" y="-38.3" font-family="Times,serif" font-size="14.00">correct_user</text>
<text text-anchor="start" x="708" y="-23.3" font-family="Times,serif" font-size="14.00">logged_in_user</text>
<text text-anchor="start" x="708" y="-8.3" font-family="Times,serif" font-size="14.00">user_params</text>
</g>
<!-- ProductAddOnListItemsController -->
<g id="node11" class="node"><title>ProductAddOnListItemsController</title>
<path fill="none" stroke="black" d="M472,-240.5C472,-240.5 654,-240.5 654,-240.5 660,-240.5 666,-246.5 666,-252.5 666,-252.5 666,-441.5 666,-441.5 666,-447.5 660,-453.5 654,-453.5 654,-453.5 472,-453.5 472,-453.5 466,-453.5 460,-447.5 460,-441.5 460,-441.5 460,-252.5 460,-252.5 460,-246.5 466,-240.5 472,-240.5"/>
<text text-anchor="middle" x="563" y="-438.3" font-family="Times,serif" font-size="14.00">ProductAddOnListItemsController</text>
<polyline fill="none" stroke="black" points="460,-430.5 666,-430.5 "/>
<text text-anchor="start" x="468" y="-415.3" font-family="Times,serif" font-size="14.00">create</text>
<text text-anchor="start" x="468" y="-400.3" font-family="Times,serif" font-size="14.00">destroy</text>
<text text-anchor="start" x="468" y="-385.3" font-family="Times,serif" font-size="14.00">edit</text>
<text text-anchor="start" x="468" y="-370.3" font-family="Times,serif" font-size="14.00">index</text>
<text text-anchor="start" x="468" y="-355.3" font-family="Times,serif" font-size="14.00">new</text>
<text text-anchor="start" x="468" y="-340.3" font-family="Times,serif" font-size="14.00">show</text>
<text text-anchor="start" x="468" y="-325.3" font-family="Times,serif" font-size="14.00">update</text>
<polyline fill="none" stroke="black" points="460,-317.5 666,-317.5 "/>
<polyline fill="none" stroke="black" points="460,-293.5 666,-293.5 "/>
<text text-anchor="start" x="468" y="-278.3" font-family="Times,serif" font-size="14.00">_layout</text>
<text text-anchor="start" x="468" y="-263.3" font-family="Times,serif" font-size="14.00">product_add_on_list_item_params</text>
<text text-anchor="start" x="468" y="-248.3" font-family="Times,serif" font-size="14.00">set_product_add_on_list_item</text>
</g>
<!-- AccountActivationsController -->
<g id="node12" class="node"><title>AccountActivationsController</title>
<path fill="none" stroke="black" d="M712,-460.5C712,-460.5 868,-460.5 868,-460.5 874,-460.5 880,-466.5 880,-472.5 880,-472.5 880,-541.5 880,-541.5 880,-547.5 874,-553.5 868,-553.5 868,-553.5 712,-553.5 712,-553.5 706,-553.5 700,-547.5 700,-541.5 700,-541.5 700,-472.5 700,-472.5 700,-466.5 706,-460.5 712,-460.5"/>
<text text-anchor="middle" x="790" y="-538.3" font-family="Times,serif" font-size="14.00">AccountActivationsController</text>
<polyline fill="none" stroke="black" points="700,-530.5 880,-530.5 "/>
<text text-anchor="start" x="708" y="-515.3" font-family="Times,serif" font-size="14.00">edit</text>
<polyline fill="none" stroke="black" points="700,-507.5 880,-507.5 "/>
<polyline fill="none" stroke="black" points="700,-483.5 880,-483.5 "/>
<text text-anchor="start" x="708" y="-468.3" font-family="Times,serif" font-size="14.00">_layout</text>
</g>
<!-- ProductAddOnListsController -->
<g id="node13" class="node"><title>ProductAddOnListsController</title>
<path fill="none" stroke="black" d="M32,-680.5C32,-680.5 188,-680.5 188,-680.5 194,-680.5 200,-686.5 200,-692.5 200,-692.5 200,-881.5 200,-881.5 200,-887.5 194,-893.5 188,-893.5 188,-893.5 32,-893.5 32,-893.5 26,-893.5 20,-887.5 20,-881.5 20,-881.5 20,-692.5 20,-692.5 20,-686.5 26,-680.5 32,-680.5"/>
<text text-anchor="middle" x="110" y="-878.3" font-family="Times,serif" font-size="14.00">ProductAddOnListsController</text>
<polyline fill="none" stroke="black" points="20,-870.5 200,-870.5 "/>
<text text-anchor="start" x="28" y="-855.3" font-family="Times,serif" font-size="14.00">create</text>
<text text-anchor="start" x="28" y="-840.3" font-family="Times,serif" font-size="14.00">destroy</text>
<text text-anchor="start" x="28" y="-825.3" font-family="Times,serif" font-size="14.00">edit</text>
<text text-anchor="start" x="28" y="-810.3" font-family="Times,serif" font-size="14.00">index</text>
<text text-anchor="start" x="28" y="-795.3" font-family="Times,serif" font-size="14.00">new</text>
<text text-anchor="start" x="28" y="-780.3" font-family="Times,serif" font-size="14.00">show</text>
<text text-anchor="start" x="28" y="-765.3" font-family="Times,serif" font-size="14.00">update</text>
<polyline fill="none" stroke="black" points="20,-757.5 200,-757.5 "/>
<polyline fill="none" stroke="black" points="20,-733.5 200,-733.5 "/>
<text text-anchor="start" x="28" y="-718.3" font-family="Times,serif" font-size="14.00">_layout</text>
<text text-anchor="start" x="28" y="-703.3" font-family="Times,serif" font-size="14.00">product_add_on_list_params</text>
<text text-anchor="start" x="28" y="-688.3" font-family="Times,serif" font-size="14.00">set_product_add_on_list</text>
</g>
<!-- ProductGroupsController -->
<g id="node14" class="node"><title>ProductGroupsController</title>
<path fill="none" stroke="black" d="M212,-0.5C212,-0.5 342,-0.5 342,-0.5 348,-0.5 354,-6.5 354,-12.5 354,-12.5 354,-201.5 354,-201.5 354,-207.5 348,-213.5 342,-213.5 342,-213.5 212,-213.5 212,-213.5 206,-213.5 200,-207.5 200,-201.5 200,-201.5 200,-12.5 200,-12.5 200,-6.5 206,-0.5 212,-0.5"/>
<text text-anchor="middle" x="277" y="-198.3" font-family="Times,serif" font-size="14.00">ProductGroupsController</text>
<polyline fill="none" stroke="black" points="200,-190.5 354,-190.5 "/>
<text text-anchor="start" x="208" y="-175.3" font-family="Times,serif" font-size="14.00">create</text>
<text text-anchor="start" x="208" y="-160.3" font-family="Times,serif" font-size="14.00">destroy</text>
<text text-anchor="start" x="208" y="-145.3" font-family="Times,serif" font-size="14.00">edit</text>
<text text-anchor="start" x="208" y="-130.3" font-family="Times,serif" font-size="14.00">index</text>
<text text-anchor="start" x="208" y="-115.3" font-family="Times,serif" font-size="14.00">new</text>
<text text-anchor="start" x="208" y="-100.3" font-family="Times,serif" font-size="14.00">show</text>
<text text-anchor="start" x="208" y="-85.3" font-family="Times,serif" font-size="14.00">update</text>
<polyline fill="none" stroke="black" points="200,-77.5 354,-77.5 "/>
<polyline fill="none" stroke="black" points="200,-53.5 354,-53.5 "/>
<text text-anchor="start" x="208" y="-38.3" font-family="Times,serif" font-size="14.00">_layout</text>
<text text-anchor="start" x="208" y="-23.3" font-family="Times,serif" font-size="14.00">product_group_params</text>
<text text-anchor="start" x="208" y="-8.3" font-family="Times,serif" font-size="14.00">set_product_group</text>
</g>
</g>
</svg>
