<?xml version="1.0" encoding="UTF-8" standalone="no"?>
<!DOCTYPE svg PUBLIC "-//W3C//DTD SVG 1.1//EN"
 "http://www.w3.org/Graphics/SVG/1.1/DTD/svg11.dtd">
<!-- Generated by graphviz version 2.36.0 (20140111.2315)
 -->
<!-- Title: controllers_diagram Pages: 1 -->
<svg width="932pt" height="912pt"
 viewBox="0.00 0.00 932.00 912.00" xmlns="http://www.w3.org/2000/svg" xmlns:xlink="http://www.w3.org/1999/xlink">
<g id="graph0" class="graph" transform="scale(1 1) rotate(0) translate(4 908)">
<title>controllers_diagram</title>
<polygon fill="white" stroke="none" points="-4,4 -4,-908 928,-908 928,4 -4,4"/>
<!-- _diagram_info -->
<g id="node1" class="node"><title>_diagram_info</title>
<text text-anchor="start" x="708" y="-483.6" font-family="Times,serif" font-size="13.00">Controllers diagram</text>
<text text-anchor="start" x="708" y="-469.6" font-family="Times,serif" font-size="13.00">Date: Dec 10 2014 &#45; 14:46</text>
<text text-anchor="start" x="708" y="-455.6" font-family="Times,serif" font-size="13.00">Migration version: 20141210105823</text>
<text text-anchor="start" x="708" y="-441.6" font-family="Times,serif" font-size="13.00">Generated by RailRoady 1.2.0</text>
<text text-anchor="start" x="708" y="-427.6" font-family="Times,serif" font-size="13.00">http://railroady.prestonlee.com</text>
</g>
<!-- PasswordResetsController -->
<g id="node2" class="node"><title>PasswordResetsController</title>
<path fill="none" stroke="black" d="M12,-380.5C12,-380.5 147,-380.5 147,-380.5 153,-380.5 159,-386.5 159,-392.5 159,-392.5 159,-581.5 159,-581.5 159,-587.5 153,-593.5 147,-593.5 147,-593.5 12,-593.5 12,-593.5 6,-593.5 0,-587.5 0,-581.5 0,-581.5 0,-392.5 0,-392.5 0,-386.5 6,-380.5 12,-380.5"/>
<text text-anchor="middle" x="79.5" y="-578.3" font-family="Times,serif" font-size="14.00">PasswordResetsController</text>
<polyline fill="none" stroke="black" points="0,-570.5 159,-570.5 "/>
<text text-anchor="start" x="8" y="-555.3" font-family="Times,serif" font-size="14.00">create</text>
<text text-anchor="start" x="8" y="-540.3" font-family="Times,serif" font-size="14.00">edit</text>
<text text-anchor="start" x="8" y="-525.3" font-family="Times,serif" font-size="14.00">new</text>
<text text-anchor="start" x="8" y="-510.3" font-family="Times,serif" font-size="14.00">update</text>
<polyline fill="none" stroke="black" points="0,-502.5 159,-502.5 "/>
<polyline fill="none" stroke="black" points="0,-478.5 159,-478.5 "/>
<text text-anchor="start" x="8" y="-463.3" font-family="Times,serif" font-size="14.00">_layout</text>
<text text-anchor="start" x="8" y="-448.3" font-family="Times,serif" font-size="14.00">both_passwords_blank?</text>
<text text-anchor="start" x="8" y="-433.3" font-family="Times,serif" font-size="14.00">check_expiration</text>
<text text-anchor="start" x="8" y="-418.3" font-family="Times,serif" font-size="14.00">get_user</text>
<text text-anchor="start" x="8" y="-403.3" font-family="Times,serif" font-size="14.00">user_params</text>
<text text-anchor="start" x="8" y="-388.3" font-family="Times,serif" font-size="14.00">valid_user</text>
</g>
<!-- ApplicationController -->
<g id="node3" class="node"><title>ApplicationController</title>
<path fill="none" stroke="black" d="M532,-760.5C532,-760.5 644,-760.5 644,-760.5 650,-760.5 656,-766.5 656,-772.5 656,-772.5 656,-842.5 656,-842.5 656,-848.5 650,-854.5 644,-854.5 644,-854.5 532,-854.5 532,-854.5 526,-854.5 520,-848.5 520,-842.5 520,-842.5 520,-772.5 520,-772.5 520,-766.5 526,-760.5 532,-760.5"/>
<text text-anchor="middle" x="588" y="-839.3" font-family="Times,serif" font-size="14.00">ApplicationController</text>
<polyline fill="none" stroke="black" points="520,-831.5 656,-831.5 "/>
<polyline fill="none" stroke="black" points="520,-807.5 656,-807.5 "/>
<polyline fill="none" stroke="black" points="520,-783.5 656,-783.5 "/>
<text text-anchor="start" x="528" y="-768.3" font-family="Times,serif" font-size="14.00">_layout</text>
</g>
<!-- StaticPagesController -->
<g id="node4" class="node"><title>StaticPagesController</title>
<path fill="none" stroke="black" d="M712,-540.5C712,-540.5 822,-540.5 822,-540.5 828,-540.5 834,-546.5 834,-552.5 834,-552.5 834,-666.5 834,-666.5 834,-672.5 828,-678.5 822,-678.5 822,-678.5 712,-678.5 712,-678.5 706,-678.5 700,-672.5 700,-666.5 700,-666.5 700,-552.5 700,-552.5 700,-546.5 706,-540.5 712,-540.5"/>
<text text-anchor="middle" x="767" y="-663.3" font-family="Times,serif" font-size="14.00">StaticPagesController</text>
<polyline fill="none" stroke="black" points="700,-655.5 834,-655.5 "/>
<text text-anchor="start" x="708" y="-640.3" font-family="Times,serif" font-size="14.00">about</text>
<text text-anchor="start" x="708" y="-625.3" font-family="Times,serif" font-size="14.00">contact</text>
<text text-anchor="start" x="708" y="-610.3" font-family="Times,serif" font-size="14.00">help</text>
<text text-anchor="start" x="708" y="-595.3" font-family="Times,serif" font-size="14.00">home</text>
<polyline fill="none" stroke="black" points="700,-587.5 834,-587.5 "/>
<polyline fill="none" stroke="black" points="700,-563.5 834,-563.5 "/>
<text text-anchor="start" x="708" y="-548.3" font-family="Times,serif" font-size="14.00">_layout</text>
</g>
<!-- ProductCategorySizesController -->
<g id="node5" class="node"><title>ProductCategorySizesController</title>
<path fill="none" stroke="black" d="M472,-500.5C472,-500.5 640,-500.5 640,-500.5 646,-500.5 652,-506.5 652,-512.5 652,-512.5 652,-701.5 652,-701.5 652,-707.5 646,-713.5 640,-713.5 640,-713.5 472,-713.5 472,-713.5 466,-713.5 460,-707.5 460,-701.5 460,-701.5 460,-512.5 460,-512.5 460,-506.5 466,-500.5 472,-500.5"/>
<text text-anchor="middle" x="556" y="-698.3" font-family="Times,serif" font-size="14.00">ProductCategorySizesController</text>
<polyline fill="none" stroke="black" points="460,-690.5 652,-690.5 "/>
<text text-anchor="start" x="468" y="-675.3" font-family="Times,serif" font-size="14.00">create</text>
<text text-anchor="start" x="468" y="-660.3" font-family="Times,serif" font-size="14.00">destroy</text>
<text text-anchor="start" x="468" y="-645.3" font-family="Times,serif" font-size="14.00">edit</text>
<text text-anchor="start" x="468" y="-630.3" font-family="Times,serif" font-size="14.00">index</text>
<text text-anchor="start" x="468" y="-615.3" font-family="Times,serif" font-size="14.00">new</text>
<text text-anchor="start" x="468" y="-600.3" font-family="Times,serif" font-size="14.00">show</text>
<text text-anchor="start" x="468" y="-585.3" font-family="Times,serif" font-size="14.00">update</text>
<polyline fill="none" stroke="black" points="460,-577.5 652,-577.5 "/>
<polyline fill="none" stroke="black" points="460,-553.5 652,-553.5 "/>
<text text-anchor="start" x="468" y="-538.3" font-family="Times,serif" font-size="14.00">_layout</text>
<text text-anchor="start" x="468" y="-523.3" font-family="Times,serif" font-size="14.00">product_category_size_params</text>
<text text-anchor="start" x="468" y="-508.3" font-family="Times,serif" font-size="14.00">set_product_category_size</text>
</g>
<!-- ProductAddOnsController -->
<g id="node6" class="node"><title>ProductAddOnsController</title>
<path fill="none" stroke="black" d="M12,-120.5C12,-120.5 147,-120.5 147,-120.5 153,-120.5 159,-126.5 159,-132.5 159,-132.5 159,-321.5 159,-321.5 159,-327.5 153,-333.5 147,-333.5 147,-333.5 12,-333.5 12,-333.5 6,-333.5 0,-327.5 0,-321.5 0,-321.5 0,-132.5 0,-132.5 0,-126.5 6,-120.5 12,-120.5"/>
<text text-anchor="middle" x="79.5" y="-318.3" font-family="Times,serif" font-size="14.00">ProductAddOnsController</text>
<polyline fill="none" stroke="black" points="0,-310.5 159,-310.5 "/>
<text text-anchor="start" x="8" y="-295.3" font-family="Times,serif" font-size="14.00">create</text>
<text text-anchor="start" x="8" y="-280.3" font-family="Times,serif" font-size="14.00">destroy</text>
<text text-anchor="start" x="8" y="-265.3" font-family="Times,serif" font-size="14.00">edit</text>
<text text-anchor="start" x="8" y="-250.3" font-family="Times,serif" font-size="14.00">index</text>
<text text-anchor="start" x="8" y="-235.3" font-family="Times,serif" font-size="14.00">new</text>
<text text-anchor="start" x="8" y="-220.3" font-family="Times,serif" font-size="14.00">show</text>
<text text-anchor="start" x="8" y="-205.3" font-family="Times,serif" font-size="14.00">update</text>
<polyline fill="none" stroke="black" points="0,-197.5 159,-197.5 "/>
<polyline fill="none" stroke="black" points="0,-173.5 159,-173.5 "/>
<text text-anchor="start" x="8" y="-158.3" font-family="Times,serif" font-size="14.00">_layout</text>
<text text-anchor="start" x="8" y="-143.3" font-family="Times,serif" font-size="14.00">product_add_on_params</text>
<text text-anchor="start" x="8" y="-128.3" font-family="Times,serif" font-size="14.00">set_product_add_on</text>
</g>
<!-- ProductCategoriesController -->
<g id="node7" class="node"><title>ProductCategoriesController</title>
<path fill="none" stroke="black" d="M252,-520.5C252,-520.5 400,-520.5 400,-520.5 406,-520.5 412,-526.5 412,-532.5 412,-532.5 412,-721.5 412,-721.5 412,-727.5 406,-733.5 400,-733.5 400,-733.5 252,-733.5 252,-733.5 246,-733.5 240,-727.5 240,-721.5 240,-721.5 240,-532.5 240,-532.5 240,-526.5 246,-520.5 252,-520.5"/>
<text text-anchor="middle" x="326" y="-718.3" font-family="Times,serif" font-size="14.00">ProductCategoriesController</text>
<polyline fill="none" stroke="black" points="240,-710.5 412,-710.5 "/>
<text text-anchor="start" x="248" y="-695.3" font-family="Times,serif" font-size="14.00">create</text>
<text text-anchor="start" x="248" y="-680.3" font-family="Times,serif" font-size="14.00">destroy</text>
<text text-anchor="start" x="248" y="-665.3" font-family="Times,serif" font-size="14.00">edit</text>
<text text-anchor="start" x="248" y="-650.3" font-family="Times,serif" font-size="14.00">index</text>
<text text-anchor="start" x="248" y="-635.3" font-family="Times,serif" font-size="14.00">new</text>
<text text-anchor="start" x="248" y="-620.3" font-family="Times,serif" font-size="14.00">show</text>
<text text-anchor="start" x="248" y="-605.3" font-family="Times,serif" font-size="14.00">update</text>
<polyline fill="none" stroke="black" points="240,-597.5 412,-597.5 "/>
<polyline fill="none" stroke="black" points="240,-573.5 412,-573.5 "/>
<text text-anchor="start" x="248" y="-558.3" font-family="Times,serif" font-size="14.00">_layout</text>
<text text-anchor="start" x="248" y="-543.3" font-family="Times,serif" font-size="14.00">product_category_params</text>
<text text-anchor="start" x="248" y="-528.3" font-family="Times,serif" font-size="14.00">set_product_category</text>
</g>
<!-- Api::V1::ProductCategorySizesController -->
<g id="node8" class="node"><title>Api::V1::ProductCategorySizesController</title>
<path fill="none" stroke="black" d="M412,-100.5C412,-100.5 632,-100.5 632,-100.5 638,-100.5 644,-106.5 644,-112.5 644,-112.5 644,-181.5 644,-181.5 644,-187.5 638,-193.5 632,-193.5 632,-193.5 412,-193.5 412,-193.5 406,-193.5 400,-187.5 400,-181.5 400,-181.5 400,-112.5 400,-112.5 400,-106.5 406,-100.5 412,-100.5"/>
<text text-anchor="middle" x="522" y="-178.3" font-family="Times,serif" font-size="14.00">Api::V1::ProductCategorySizesController</text>
<polyline fill="none" stroke="black" points="400,-170.5 644,-170.5 "/>
<text text-anchor="start" x="408" y="-155.3" font-family="Times,serif" font-size="14.00">index</text>
<polyline fill="none" stroke="black" points="400,-147.5 644,-147.5 "/>
<polyline fill="none" stroke="black" points="400,-123.5 644,-123.5 "/>
<text text-anchor="start" x="408" y="-108.3" font-family="Times,serif" font-size="14.00">_layout</text>
</g>
<!-- Api::V1::ProductCategoriesController -->
<g id="node9" class="node"><title>Api::V1::ProductCategoriesController</title>
<path fill="none" stroke="black" d="M712,-280.5C712,-280.5 912,-280.5 912,-280.5 918,-280.5 924,-286.5 924,-292.5 924,-292.5 924,-361.5 924,-361.5 924,-367.5 918,-373.5 912,-373.5 912,-373.5 712,-373.5 712,-373.5 706,-373.5 700,-367.5 700,-361.5 700,-361.5 700,-292.5 700,-292.5 700,-286.5 706,-280.5 712,-280.5"/>
<text text-anchor="middle" x="812" y="-358.3" font-family="Times,serif" font-size="14.00">Api::V1::ProductCategoriesController</text>
<polyline fill="none" stroke="black" points="700,-350.5 924,-350.5 "/>
<text text-anchor="start" x="708" y="-335.3" font-family="Times,serif" font-size="14.00">index</text>
<polyline fill="none" stroke="black" points="700,-327.5 924,-327.5 "/>
<polyline fill="none" stroke="black" points="700,-303.5 924,-303.5 "/>
<text text-anchor="start" x="708" y="-288.3" font-family="Times,serif" font-size="14.00">_layout</text>
</g>
<!-- SessionsController -->
<g id="node10" class="node"><title>SessionsController</title>
<path fill="none" stroke="black" d="M372,-780.5C372,-780.5 467,-780.5 467,-780.5 473,-780.5 479,-786.5 479,-792.5 479,-792.5 479,-891.5 479,-891.5 479,-897.5 473,-903.5 467,-903.5 467,-903.5 372,-903.5 372,-903.5 366,-903.5 360,-897.5 360,-891.5 360,-891.5 360,-792.5 360,-792.5 360,-786.5 366,-780.5 372,-780.5"/>
<text text-anchor="middle" x="419.5" y="-888.3" font-family="Times,serif" font-size="14.00">SessionsController</text>
<polyline fill="none" stroke="black" points="360,-880.5 479,-880.5 "/>
<text text-anchor="start" x="368" y="-865.3" font-family="Times,serif" font-size="14.00">create</text>
<text text-anchor="start" x="368" y="-850.3" font-family="Times,serif" font-size="14.00">destroy</text>
<text text-anchor="start" x="368" y="-835.3" font-family="Times,serif" font-size="14.00">new</text>
<polyline fill="none" stroke="black" points="360,-827.5 479,-827.5 "/>
<polyline fill="none" stroke="black" points="360,-803.5 479,-803.5 "/>
<text text-anchor="start" x="368" y="-788.3" font-family="Times,serif" font-size="14.00">_layout</text>
</g>
<!-- ProductGroupAddOnListsController -->
<g id="node11" class="node"><title>ProductGroupAddOnListsController</title>
<path fill="none" stroke="black" d="M212,-260.5C212,-260.5 403,-260.5 403,-260.5 409,-260.5 415,-266.5 415,-272.5 415,-272.5 415,-461.5 415,-461.5 415,-467.5 409,-473.5 403,-473.5 403,-473.5 212,-473.5 212,-473.5 206,-473.5 200,-467.5 200,-461.5 200,-461.5 200,-272.5 200,-272.5 200,-266.5 206,-260.5 212,-260.5"/>
<text text-anchor="middle" x="307.5" y="-458.3" font-family="Times,serif" font-size="14.00">ProductGroupAddOnListsController</text>
<polyline fill="none" stroke="black" points="200,-450.5 415,-450.5 "/>
<text text-anchor="start" x="208" y="-435.3" font-family="Times,serif" font-size="14.00">create</text>
<text text-anchor="start" x="208" y="-420.3" font-family="Times,serif" font-size="14.00">destroy</text>
<text text-anchor="start" x="208" y="-405.3" font-family="Times,serif" font-size="14.00">edit</text>
<text text-anchor="start" x="208" y="-390.3" font-family="Times,serif" font-size="14.00">index</text>
<text text-anchor="start" x="208" y="-375.3" font-family="Times,serif" font-size="14.00">new</text>
<text text-anchor="start" x="208" y="-360.3" font-family="Times,serif" font-size="14.00">show</text>
<text text-anchor="start" x="208" y="-345.3" font-family="Times,serif" font-size="14.00">update</text>
<polyline fill="none" stroke="black" points="200,-337.5 415,-337.5 "/>
<polyline fill="none" stroke="black" points="200,-313.5 415,-313.5 "/>
<text text-anchor="start" x="208" y="-298.3" font-family="Times,serif" font-size="14.00">_layout</text>
<text text-anchor="start" x="208" y="-283.3" font-family="Times,serif" font-size="14.00">product_group_add_on_list_params</text>
<text text-anchor="start" x="208" y="-268.3" font-family="Times,serif" font-size="14.00">set_product_group_add_on_list</text>
</g>
<!-- UsersController -->
<g id="node12" class="node"><title>UsersController</title>
<path fill="none" stroke="black" d="M712,-0.5C712,-0.5 791,-0.5 791,-0.5 797,-0.5 803,-6.5 803,-12.5 803,-12.5 803,-231.5 803,-231.5 803,-237.5 797,-243.5 791,-243.5 791,-243.5 712,-243.5 712,-243.5 706,-243.5 700,-237.5 700,-231.5 700,-231.5 700,-12.5 700,-12.5 700,-6.5 706,-0.5 712,-0.5"/>
<text text-anchor="middle" x="751.5" y="-228.3" font-family="Times,serif" font-size="14.00">UsersController</text>
<polyline fill="none" stroke="black" points="700,-220.5 803,-220.5 "/>
<text text-anchor="start" x="708" y="-205.3" font-family="Times,serif" font-size="14.00">create</text>
<text text-anchor="start" x="708" y="-190.3" font-family="Times,serif" font-size="14.00">destroy</text>
<text text-anchor="start" x="708" y="-175.3" font-family="Times,serif" font-size="14.00">edit</text>
<text text-anchor="start" x="708" y="-160.3" font-family="Times,serif" font-size="14.00">index</text>
<text text-anchor="start" x="708" y="-145.3" font-family="Times,serif" font-size="14.00">new</text>
<text text-anchor="start" x="708" y="-130.3" font-family="Times,serif" font-size="14.00">show</text>
<text text-anchor="start" x="708" y="-115.3" font-family="Times,serif" font-size="14.00">update</text>
<polyline fill="none" stroke="black" points="700,-107.5 803,-107.5 "/>
<polyline fill="none" stroke="black" points="700,-83.5 803,-83.5 "/>
<text text-anchor="start" x="708" y="-68.3" font-family="Times,serif" font-size="14.00">_layout</text>
<text text-anchor="start" x="708" y="-53.3" font-family="Times,serif" font-size="14.00">admin_user</text>
<text text-anchor="start" x="708" y="-38.3" font-family="Times,serif" font-size="14.00">correct_user</text>
<text text-anchor="start" x="708" y="-23.3" font-family="Times,serif" font-size="14.00">logged_in_user</text>
<text text-anchor="start" x="708" y="-8.3" font-family="Times,serif" font-size="14.00">user_params</text>
</g>
<!-- ProductAddOnListItemsController -->
<g id="node13" class="node"><title>ProductAddOnListItemsController</title>
<path fill="none" stroke="black" d="M472,-240.5C472,-240.5 654,-240.5 654,-240.5 660,-240.5 666,-246.5 666,-252.5 666,-252.5 666,-441.5 666,-441.5 666,-447.5 660,-453.5 654,-453.5 654,-453.5 472,-453.5 472,-453.5 466,-453.5 460,-447.5 460,-441.5 460,-441.5 460,-252.5 460,-252.5 460,-246.5 466,-240.5 472,-240.5"/>
<text text-anchor="middle" x="563" y="-438.3" font-family="Times,serif" font-size="14.00">ProductAddOnListItemsController</text>
<polyline fill="none" stroke="black" points="460,-430.5 666,-430.5 "/>
<text text-anchor="start" x="468" y="-415.3" font-family="Times,serif" font-size="14.00">create</text>
<text text-anchor="start" x="468" y="-400.3" font-family="Times,serif" font-size="14.00">destroy</text>
<text text-anchor="start" x="468" y="-385.3" font-family="Times,serif" font-size="14.00">edit</text>
<text text-anchor="start" x="468" y="-370.3" font-family="Times,serif" font-size="14.00">index</text>
<text text-anchor="start" x="468" y="-355.3" font-family="Times,serif" font-size="14.00">new</text>
<text text-anchor="start" x="468" y="-340.3" font-family="Times,serif" font-size="14.00">show</text>
<text text-anchor="start" x="468" y="-325.3" font-family="Times,serif" font-size="14.00">update</text>
<polyline fill="none" stroke="black" points="460,-317.5 666,-317.5 "/>
<polyline fill="none" stroke="black" points="460,-293.5 666,-293.5 "/>
<text text-anchor="start" x="468" y="-278.3" font-family="Times,serif" font-size="14.00">_layout</text>
<text text-anchor="start" x="468" y="-263.3" font-family="Times,serif" font-size="14.00">product_add_on_list_item_params</text>
<text text-anchor="start" x="468" y="-248.3" font-family="Times,serif" font-size="14.00">set_product_add_on_list_item</text>
</g>
<!-- AccountActivationsController -->
<g id="node14" class="node"><title>AccountActivationsController</title>
<path fill="none" stroke="black" d="M712,-720.5C712,-720.5 868,-720.5 868,-720.5 874,-720.5 880,-726.5 880,-732.5 880,-732.5 880,-801.5 880,-801.5 880,-807.5 874,-813.5 868,-813.5 868,-813.5 712,-813.5 712,-813.5 706,-813.5 700,-807.5 700,-801.5 700,-801.5 700,-732.5 700,-732.5 700,-726.5 706,-720.5 712,-720.5"/>
<text text-anchor="middle" x="790" y="-798.3" font-family="Times,serif" font-size="14.00">AccountActivationsController</text>
<polyline fill="none" stroke="black" points="700,-790.5 880,-790.5 "/>
<text text-anchor="start" x="708" y="-775.3" font-family="Times,serif" font-size="14.00">edit</text>
<polyline fill="none" stroke="black" points="700,-767.5 880,-767.5 "/>
<polyline fill="none" stroke="black" points="700,-743.5 880,-743.5 "/>
<text text-anchor="start" x="708" y="-728.3" font-family="Times,serif" font-size="14.00">_layout</text>
</g>
<!-- ProductAddOnListsController -->
<g id="node15" class="node"><title>ProductAddOnListsController</title>
<path fill="none" stroke="black" d="M32,-680.5C32,-680.5 188,-680.5 188,-680.5 194,-680.5 200,-686.5 200,-692.5 200,-692.5 200,-881.5 200,-881.5 200,-887.5 194,-893.5 188,-893.5 188,-893.5 32,-893.5 32,-893.5 26,-893.5 20,-887.5 20,-881.5 20,-881.5 20,-692.5 20,-692.5 20,-686.5 26,-680.5 32,-680.5"/>
<text text-anchor="middle" x="110" y="-878.3" font-family="Times,serif" font-size="14.00">ProductAddOnListsController</text>
<polyline fill="none" stroke="black" points="20,-870.5 200,-870.5 "/>
<text text-anchor="start" x="28" y="-855.3" font-family="Times,serif" font-size="14.00">create</text>
<text text-anchor="start" x="28" y="-840.3" font-family="Times,serif" font-size="14.00">destroy</text>
<text text-anchor="start" x="28" y="-825.3" font-family="Times,serif" font-size="14.00">edit</text>
<text text-anchor="start" x="28" y="-810.3" font-family="Times,serif" font-size="14.00">index</text>
<text text-anchor="start" x="28" y="-795.3" font-family="Times,serif" font-size="14.00">new</text>
<text text-anchor="start" x="28" y="-780.3" font-family="Times,serif" font-size="14.00">show</text>
<text text-anchor="start" x="28" y="-765.3" font-family="Times,serif" font-size="14.00">update</text>
<polyline fill="none" stroke="black" points="20,-757.5 200,-757.5 "/>
<polyline fill="none" stroke="black" points="20,-733.5 200,-733.5 "/>
<text text-anchor="start" x="28" y="-718.3" font-family="Times,serif" font-size="14.00">_layout</text>
<text text-anchor="start" x="28" y="-703.3" font-family="Times,serif" font-size="14.00">product_add_on_list_params</text>
<text text-anchor="start" x="28" y="-688.3" font-family="Times,serif" font-size="14.00">set_product_add_on_list</text>
</g>
<!-- ProductGroupsController -->
<g id="node16" class="node"><title>ProductGroupsController</title>
<path fill="none" stroke="black" d="M212,-0.5C212,-0.5 342,-0.5 342,-0.5 348,-0.5 354,-6.5 354,-12.5 354,-12.5 354,-201.5 354,-201.5 354,-207.5 348,-213.5 342,-213.5 342,-213.5 212,-213.5 212,-213.5 206,-213.5 200,-207.5 200,-201.5 200,-201.5 200,-12.5 200,-12.5 200,-6.5 206,-0.5 212,-0.5"/>
<text text-anchor="middle" x="277" y="-198.3" font-family="Times,serif" font-size="14.00">ProductGroupsController</text>
<polyline fill="none" stroke="black" points="200,-190.5 354,-190.5 "/>
<text text-anchor="start" x="208" y="-175.3" font-family="Times,serif" font-size="14.00">create</text>
<text text-anchor="start" x="208" y="-160.3" font-family="Times,serif" font-size="14.00">destroy</text>
<text text-anchor="start" x="208" y="-145.3" font-family="Times,serif" font-size="14.00">edit</text>
<text text-anchor="start" x="208" y="-130.3" font-family="Times,serif" font-size="14.00">index</text>
<text text-anchor="start" x="208" y="-115.3" font-family="Times,serif" font-size="14.00">new</text>
<text text-anchor="start" x="208" y="-100.3" font-family="Times,serif" font-size="14.00">show</text>
<text text-anchor="start" x="208" y="-85.3" font-family="Times,serif" font-size="14.00">update</text>
<polyline fill="none" stroke="black" points="200,-77.5 354,-77.5 "/>
<polyline fill="none" stroke="black" points="200,-53.5 354,-53.5 "/>
<text text-anchor="start" x="208" y="-38.3" font-family="Times,serif" font-size="14.00">_layout</text>
<text text-anchor="start" x="208" y="-23.3" font-family="Times,serif" font-size="14.00">product_group_params</text>
<text text-anchor="start" x="208" y="-8.3" font-family="Times,serif" font-size="14.00">set_product_group</text>
</g>
</g>
</svg>
