<?xml version="1.0" encoding="UTF-8" standalone="no"?>
<!DOCTYPE svg PUBLIC "-//W3C//DTD SVG 1.1//EN"
 "http://www.w3.org/Graphics/SVG/1.1/DTD/svg11.dtd">
<!-- Generated by graphviz version 2.36.0 (20140111.2315)
 -->
<!-- Title: controllers_diagram Pages: 1 -->
<svg width="620pt" height="555pt"
 viewBox="0.00 0.00 620.00 555.00" xmlns="http://www.w3.org/2000/svg" xmlns:xlink="http://www.w3.org/1999/xlink">
<g id="graph0" class="graph" transform="scale(1 1) rotate(0) translate(4 551)">
<title>controllers_diagram</title>
<polygon fill="white" stroke="none" points="-4,4 -4,-551 616,-551 616,4 -4,4"/>
<!-- _diagram_info -->
<g id="node1" class="node"><title>_diagram_info</title>
<text text-anchor="start" x="93" y="-454.6" font-family="Times,serif" font-size="13.00">Controllers diagram</text>
<text text-anchor="start" x="93" y="-440.6" font-family="Times,serif" font-size="13.00">Date: Dec 09 2014 &#45; 17:19</text>
<text text-anchor="start" x="93" y="-426.6" font-family="Times,serif" font-size="13.00">Migration version: 20141209163944</text>
<text text-anchor="start" x="93" y="-412.6" font-family="Times,serif" font-size="13.00">Generated by RailRoady 1.2.0</text>
<text text-anchor="start" x="93" y="-398.6" font-family="Times,serif" font-size="13.00">http://railroady.prestonlee.com</text>
</g>
<!-- PasswordResetsController -->
<g id="node2" class="node"><title>PasswordResetsController</title>
<path fill="none" stroke="black" d="M165,-119.5C165,-119.5 300,-119.5 300,-119.5 306,-119.5 312,-125.5 312,-131.5 312,-131.5 312,-320.5 312,-320.5 312,-326.5 306,-332.5 300,-332.5 300,-332.5 165,-332.5 165,-332.5 159,-332.5 153,-326.5 153,-320.5 153,-320.5 153,-131.5 153,-131.5 153,-125.5 159,-119.5 165,-119.5"/>
<text text-anchor="middle" x="232.5" y="-317.3" font-family="Times,serif" font-size="14.00">PasswordResetsController</text>
<polyline fill="none" stroke="black" points="153,-309.5 312,-309.5 "/>
<text text-anchor="start" x="161" y="-294.3" font-family="Times,serif" font-size="14.00">create</text>
<text text-anchor="start" x="161" y="-279.3" font-family="Times,serif" font-size="14.00">edit</text>
<text text-anchor="start" x="161" y="-264.3" font-family="Times,serif" font-size="14.00">new</text>
<text text-anchor="start" x="161" y="-249.3" font-family="Times,serif" font-size="14.00">update</text>
<polyline fill="none" stroke="black" points="153,-241.5 312,-241.5 "/>
<polyline fill="none" stroke="black" points="153,-217.5 312,-217.5 "/>
<text text-anchor="start" x="161" y="-202.3" font-family="Times,serif" font-size="14.00">_layout</text>
<text text-anchor="start" x="161" y="-187.3" font-family="Times,serif" font-size="14.00">both_passwords_blank?</text>
<text text-anchor="start" x="161" y="-172.3" font-family="Times,serif" font-size="14.00">check_expiration</text>
<text text-anchor="start" x="161" y="-157.3" font-family="Times,serif" font-size="14.00">get_user</text>
<text text-anchor="start" x="161" y="-142.3" font-family="Times,serif" font-size="14.00">user_params</text>
<text text-anchor="start" x="161" y="-127.3" font-family="Times,serif" font-size="14.00">valid_user</text>
</g>
<!-- ApplicationController -->
<g id="node3" class="node"><title>ApplicationController</title>
<path fill="none" stroke="black" d="M488,-136.5C488,-136.5 600,-136.5 600,-136.5 606,-136.5 612,-142.5 612,-148.5 612,-148.5 612,-218.5 612,-218.5 612,-224.5 606,-230.5 600,-230.5 600,-230.5 488,-230.5 488,-230.5 482,-230.5 476,-224.5 476,-218.5 476,-218.5 476,-148.5 476,-148.5 476,-142.5 482,-136.5 488,-136.5"/>
<text text-anchor="middle" x="544" y="-215.3" font-family="Times,serif" font-size="14.00">ApplicationController</text>
<polyline fill="none" stroke="black" points="476,-207.5 612,-207.5 "/>
<polyline fill="none" stroke="black" points="476,-183.5 612,-183.5 "/>
<polyline fill="none" stroke="black" points="476,-159.5 612,-159.5 "/>
<text text-anchor="start" x="484" y="-144.3" font-family="Times,serif" font-size="14.00">_layout</text>
</g>
<!-- StaticPagesController -->
<g id="node4" class="node"><title>StaticPagesController</title>
<path fill="none" stroke="black" d="M420,-408.5C420,-408.5 530,-408.5 530,-408.5 536,-408.5 542,-414.5 542,-420.5 542,-420.5 542,-534.5 542,-534.5 542,-540.5 536,-546.5 530,-546.5 530,-546.5 420,-546.5 420,-546.5 414,-546.5 408,-540.5 408,-534.5 408,-534.5 408,-420.5 408,-420.5 408,-414.5 414,-408.5 420,-408.5"/>
<text text-anchor="middle" x="475" y="-531.3" font-family="Times,serif" font-size="14.00">StaticPagesController</text>
<polyline fill="none" stroke="black" points="408,-523.5 542,-523.5 "/>
<text text-anchor="start" x="416" y="-508.3" font-family="Times,serif" font-size="14.00">about</text>
<text text-anchor="start" x="416" y="-493.3" font-family="Times,serif" font-size="14.00">contact</text>
<text text-anchor="start" x="416" y="-478.3" font-family="Times,serif" font-size="14.00">help</text>
<text text-anchor="start" x="416" y="-463.3" font-family="Times,serif" font-size="14.00">home</text>
<polyline fill="none" stroke="black" points="408,-455.5 542,-455.5 "/>
<polyline fill="none" stroke="black" points="408,-431.5 542,-431.5 "/>
<text text-anchor="start" x="416" y="-416.3" font-family="Times,serif" font-size="14.00">_layout</text>
</g>
<!-- SessionsController -->
<g id="node5" class="node"><title>SessionsController</title>
<path fill="none" stroke="black" d="M12,-238.5C12,-238.5 107,-238.5 107,-238.5 113,-238.5 119,-244.5 119,-250.5 119,-250.5 119,-349.5 119,-349.5 119,-355.5 113,-361.5 107,-361.5 107,-361.5 12,-361.5 12,-361.5 6,-361.5 0,-355.5 0,-349.5 0,-349.5 0,-250.5 0,-250.5 0,-244.5 6,-238.5 12,-238.5"/>
<text text-anchor="middle" x="59.5" y="-346.3" font-family="Times,serif" font-size="14.00">SessionsController</text>
<polyline fill="none" stroke="black" points="0,-338.5 119,-338.5 "/>
<text text-anchor="start" x="8" y="-323.3" font-family="Times,serif" font-size="14.00">create</text>
<text text-anchor="start" x="8" y="-308.3" font-family="Times,serif" font-size="14.00">destroy</text>
<text text-anchor="start" x="8" y="-293.3" font-family="Times,serif" font-size="14.00">new</text>
<polyline fill="none" stroke="black" points="0,-285.5 119,-285.5 "/>
<polyline fill="none" stroke="black" points="0,-261.5 119,-261.5 "/>
<text text-anchor="start" x="8" y="-246.3" font-family="Times,serif" font-size="14.00">_layout</text>
</g>
<!-- UsersController -->
<g id="node6" class="node"><title>UsersController</title>
<path fill="none" stroke="black" d="M352,-136.5C352,-136.5 431,-136.5 431,-136.5 437,-136.5 443,-142.5 443,-148.5 443,-148.5 443,-367.5 443,-367.5 443,-373.5 437,-379.5 431,-379.5 431,-379.5 352,-379.5 352,-379.5 346,-379.5 340,-373.5 340,-367.5 340,-367.5 340,-148.5 340,-148.5 340,-142.5 346,-136.5 352,-136.5"/>
<text text-anchor="middle" x="391.5" y="-364.3" font-family="Times,serif" font-size="14.00">UsersController</text>
<polyline fill="none" stroke="black" points="340,-356.5 443,-356.5 "/>
<text text-anchor="start" x="348" y="-341.3" font-family="Times,serif" font-size="14.00">create</text>
<text text-anchor="start" x="348" y="-326.3" font-family="Times,serif" font-size="14.00">destroy</text>
<text text-anchor="start" x="348" y="-311.3" font-family="Times,serif" font-size="14.00">edit</text>
<text text-anchor="start" x="348" y="-296.3" font-family="Times,serif" font-size="14.00">index</text>
<text text-anchor="start" x="348" y="-281.3" font-family="Times,serif" font-size="14.00">new</text>
<text text-anchor="start" x="348" y="-266.3" font-family="Times,serif" font-size="14.00">show</text>
<text text-anchor="start" x="348" y="-251.3" font-family="Times,serif" font-size="14.00">update</text>
<polyline fill="none" stroke="black" points="340,-243.5 443,-243.5 "/>
<polyline fill="none" stroke="black" points="340,-219.5 443,-219.5 "/>
<text text-anchor="start" x="348" y="-204.3" font-family="Times,serif" font-size="14.00">_layout</text>
<text text-anchor="start" x="348" y="-189.3" font-family="Times,serif" font-size="14.00">admin_user</text>
<text text-anchor="start" x="348" y="-174.3" font-family="Times,serif" font-size="14.00">correct_user</text>
<text text-anchor="start" x="348" y="-159.3" font-family="Times,serif" font-size="14.00">logged_in_user</text>
<text text-anchor="start" x="348" y="-144.3" font-family="Times,serif" font-size="14.00">user_params</text>
</g>
<!-- AccountActivationsController -->
<g id="node7" class="node"><title>AccountActivationsController</title>
<path fill="none" stroke="black" d="M352,-0.5C352,-0.5 508,-0.5 508,-0.5 514,-0.5 520,-6.5 520,-12.5 520,-12.5 520,-81.5 520,-81.5 520,-87.5 514,-93.5 508,-93.5 508,-93.5 352,-93.5 352,-93.5 346,-93.5 340,-87.5 340,-81.5 340,-81.5 340,-12.5 340,-12.5 340,-6.5 346,-0.5 352,-0.5"/>
<text text-anchor="middle" x="430" y="-78.3" font-family="Times,serif" font-size="14.00">AccountActivationsController</text>
<polyline fill="none" stroke="black" points="340,-70.5 520,-70.5 "/>
<text text-anchor="start" x="348" y="-55.3" font-family="Times,serif" font-size="14.00">edit</text>
<polyline fill="none" stroke="black" points="340,-47.5 520,-47.5 "/>
<polyline fill="none" stroke="black" points="340,-23.5 520,-23.5 "/>
<text text-anchor="start" x="348" y="-8.3" font-family="Times,serif" font-size="14.00">_layout</text>
</g>
</g>
</svg>
