<?xml version="1.0" encoding="UTF-8" standalone="no"?>
<!DOCTYPE svg PUBLIC "-//W3C//DTD SVG 1.1//EN"
 "http://www.w3.org/Graphics/SVG/1.1/DTD/svg11.dtd">
<!-- Generated by graphviz version 2.36.0 (20140111.2315)
 -->
<!-- Title: models_diagram Pages: 1 -->
<svg width="881pt" height="704pt"
 viewBox="0.00 0.00 881.00 704.00" xmlns="http://www.w3.org/2000/svg" xmlns:xlink="http://www.w3.org/1999/xlink">
<g id="graph0" class="graph" transform="scale(1 1) rotate(0) translate(4 700)">
<title>models_diagram</title>
<polygon fill="white" stroke="none" points="-4,4 -4,-700 877,-700 877,4 -4,4"/>
<!-- _diagram_info -->
<g id="node1" class="node"><title>_diagram_info</title>
<text text-anchor="start" x="7" y="-621.6" font-family="Times,serif" font-size="13.00">Models diagram</text>
<text text-anchor="start" x="7" y="-607.6" font-family="Times,serif" font-size="13.00">Date: Dec 08 2014 &#45; 18:39</text>
<text text-anchor="start" x="7" y="-593.6" font-family="Times,serif" font-size="13.00">Migration version: 20141208181344</text>
<text text-anchor="start" x="7" y="-579.6" font-family="Times,serif" font-size="13.00">Generated by RailRoady 1.2.0</text>
<text text-anchor="start" x="7" y="-565.6" font-family="Times,serif" font-size="13.00">http://railroady.prestonlee.com</text>
</g>
<!-- ProductGroup -->
<g id="node2" class="node"><title>ProductGroup</title>
<path fill="none" stroke="black" d="M100.5,-205C100.5,-205 249.5,-205 249.5,-205 255.5,-205 261.5,-211 261.5,-217 261.5,-217 261.5,-449 261.5,-449 261.5,-455 255.5,-461 249.5,-461 249.5,-461 100.5,-461 100.5,-461 94.5,-461 88.5,-455 88.5,-449 88.5,-449 88.5,-217 88.5,-217 88.5,-211 94.5,-205 100.5,-205"/>
<text text-anchor="middle" x="175" y="-445.8" font-family="Times,serif" font-size="14.00">ProductGroup</text>
<polyline fill="none" stroke="black" points="88.5,-438 261.5,-438 "/>
<text text-anchor="start" x="96.5" y="-422.8" font-family="Times,serif" font-size="14.00">id :integer</text>
<text text-anchor="start" x="96.5" y="-407.8" font-family="Times,serif" font-size="14.00">name :string</text>
<text text-anchor="start" x="96.5" y="-392.8" font-family="Times,serif" font-size="14.00">description :string</text>
<text text-anchor="start" x="96.5" y="-377.8" font-family="Times,serif" font-size="14.00">onlineViewLabel :boolean</text>
<text text-anchor="start" x="96.5" y="-362.8" font-family="Times,serif" font-size="14.00">posViewLabel :string</text>
<text text-anchor="start" x="96.5" y="-347.8" font-family="Times,serif" font-size="14.00">headerImagePath :string</text>
<text text-anchor="start" x="96.5" y="-332.8" font-family="Times,serif" font-size="14.00">displayIndex :integer</text>
<text text-anchor="start" x="96.5" y="-317.8" font-family="Times,serif" font-size="14.00">visibleOnline :boolean</text>
<text text-anchor="start" x="96.5" y="-302.8" font-family="Times,serif" font-size="14.00">visibleOnPos :boolean</text>
<text text-anchor="start" x="96.5" y="-287.8" font-family="Times,serif" font-size="14.00">enabled :boolean</text>
<text text-anchor="start" x="96.5" y="-272.8" font-family="Times,serif" font-size="14.00">deleted :boolean</text>
<text text-anchor="start" x="96.5" y="-257.8" font-family="Times,serif" font-size="14.00">product_category_id :integer</text>
<text text-anchor="start" x="96.5" y="-242.8" font-family="Times,serif" font-size="14.00">user_id :integer</text>
<text text-anchor="start" x="96.5" y="-227.8" font-family="Times,serif" font-size="14.00">created_at :datetime</text>
<text text-anchor="start" x="96.5" y="-212.8" font-family="Times,serif" font-size="14.00">updated_at :datetime</text>
</g>
<!-- ProductGroupAddOnList -->
<g id="node7" class="node"><title>ProductGroupAddOnList</title>
<path fill="none" stroke="black" d="M73,-1C73,-1 277,-1 277,-1 283,-1 289,-7 289,-13 289,-13 289,-155 289,-155 289,-161 283,-167 277,-167 277,-167 73,-167 73,-167 67,-167 61,-161 61,-155 61,-155 61,-13 61,-13 61,-7 67,-1 73,-1"/>
<text text-anchor="middle" x="175" y="-151.8" font-family="Times,serif" font-size="14.00">ProductGroupAddOnList</text>
<polyline fill="none" stroke="black" points="61,-144 289,-144 "/>
<text text-anchor="start" x="69" y="-128.8" font-family="Times,serif" font-size="14.00">id :integer</text>
<text text-anchor="start" x="69" y="-113.8" font-family="Times,serif" font-size="14.00">displayIndex :integer</text>
<text text-anchor="start" x="69" y="-98.8" font-family="Times,serif" font-size="14.00">logicIndex :integer</text>
<text text-anchor="start" x="69" y="-83.8" font-family="Times,serif" font-size="14.00">required :boolean</text>
<text text-anchor="start" x="69" y="-68.8" font-family="Times,serif" font-size="14.00">product_group_id :integer</text>
<text text-anchor="start" x="69" y="-53.8" font-family="Times,serif" font-size="14.00">product_group_add_on_list_id :integer</text>
<text text-anchor="start" x="69" y="-38.8" font-family="Times,serif" font-size="14.00">user_id :integer</text>
<text text-anchor="start" x="69" y="-23.8" font-family="Times,serif" font-size="14.00">created_at :datetime</text>
<text text-anchor="start" x="69" y="-8.8" font-family="Times,serif" font-size="14.00">updated_at :datetime</text>
</g>
<!-- ProductGroup&#45;&gt;ProductGroupAddOnList -->
<g id="edge1" class="edge"><title>ProductGroup&#45;&gt;ProductGroupAddOnList</title>
<path fill="none" stroke="#c97632" d="M175,-196.816C175,-190.386 175,-183.999 175,-177.724"/>
<ellipse fill="none" stroke="#c97632" cx="175" cy="-200.882" rx="4" ry="4"/>
<polygon fill="#c97632" stroke="#c97632" points="175,-177.285 179.5,-167.285 175,-172.285 175,-167.285 175,-167.285 175,-167.285 175,-172.285 170.5,-167.285 175,-177.285 175,-177.285"/>
</g>
<!-- ProductCategory -->
<g id="node3" class="node"><title>ProductCategory</title>
<path fill="none" stroke="black" d="M243.5,-521.5C243.5,-521.5 364.5,-521.5 364.5,-521.5 370.5,-521.5 376.5,-527.5 376.5,-533.5 376.5,-533.5 376.5,-660.5 376.5,-660.5 376.5,-666.5 370.5,-672.5 364.5,-672.5 364.5,-672.5 243.5,-672.5 243.5,-672.5 237.5,-672.5 231.5,-666.5 231.5,-660.5 231.5,-660.5 231.5,-533.5 231.5,-533.5 231.5,-527.5 237.5,-521.5 243.5,-521.5"/>
<text text-anchor="middle" x="304" y="-657.3" font-family="Times,serif" font-size="14.00">ProductCategory</text>
<polyline fill="none" stroke="black" points="231.5,-649.5 376.5,-649.5 "/>
<text text-anchor="start" x="239.5" y="-634.3" font-family="Times,serif" font-size="14.00">id :integer</text>
<text text-anchor="start" x="239.5" y="-619.3" font-family="Times,serif" font-size="14.00">name :string</text>
<text text-anchor="start" x="239.5" y="-604.3" font-family="Times,serif" font-size="14.00">shortDescription :string</text>
<text text-anchor="start" x="239.5" y="-589.3" font-family="Times,serif" font-size="14.00">enabled :boolean</text>
<text text-anchor="start" x="239.5" y="-574.3" font-family="Times,serif" font-size="14.00">deleted :boolean</text>
<text text-anchor="start" x="239.5" y="-559.3" font-family="Times,serif" font-size="14.00">user_id :integer</text>
<text text-anchor="start" x="239.5" y="-544.3" font-family="Times,serif" font-size="14.00">created_at :datetime</text>
<text text-anchor="start" x="239.5" y="-529.3" font-family="Times,serif" font-size="14.00">updated_at :datetime</text>
</g>
<!-- ProductCategory&#45;&gt;ProductGroup -->
<g id="edge3" class="edge"><title>ProductCategory&#45;&gt;ProductGroup</title>
<path fill="none" stroke="#442f4f" d="M263.48,-513.703C256.683,-499.898 249.471,-485.251 242.213,-470.511"/>
<ellipse fill="none" stroke="#442f4f" cx="265.439" cy="-517.683" rx="4.00002" ry="4.00002"/>
<polygon fill="#442f4f" stroke="#442f4f" points="242.109,-470.299 241.729,-459.34 239.9,-465.813 237.692,-461.327 237.692,-461.327 237.692,-461.327 239.9,-465.813 233.655,-463.315 242.109,-470.299 242.109,-470.299"/>
</g>
<!-- ProductCategorySize -->
<g id="node4" class="node"><title>ProductCategorySize</title>
<path fill="none" stroke="black" d="M292,-242.5C292,-242.5 438,-242.5 438,-242.5 444,-242.5 450,-248.5 450,-254.5 450,-254.5 450,-411.5 450,-411.5 450,-417.5 444,-423.5 438,-423.5 438,-423.5 292,-423.5 292,-423.5 286,-423.5 280,-417.5 280,-411.5 280,-411.5 280,-254.5 280,-254.5 280,-248.5 286,-242.5 292,-242.5"/>
<text text-anchor="middle" x="365" y="-408.3" font-family="Times,serif" font-size="14.00">ProductCategorySize</text>
<polyline fill="none" stroke="black" points="280,-400.5 450,-400.5 "/>
<text text-anchor="start" x="288" y="-385.3" font-family="Times,serif" font-size="14.00">id :integer</text>
<text text-anchor="start" x="288" y="-370.3" font-family="Times,serif" font-size="14.00">prefixLabelOnline :string</text>
<text text-anchor="start" x="288" y="-355.3" font-family="Times,serif" font-size="14.00">prefixLabelPrint :string</text>
<text text-anchor="start" x="288" y="-340.3" font-family="Times,serif" font-size="14.00">prefixLabelPos :string</text>
<text text-anchor="start" x="288" y="-325.3" font-family="Times,serif" font-size="14.00">postLabelOnline :string</text>
<text text-anchor="start" x="288" y="-310.3" font-family="Times,serif" font-size="14.00">postLabelPrint :string</text>
<text text-anchor="start" x="288" y="-295.3" font-family="Times,serif" font-size="14.00">postLabelPos :string</text>
<text text-anchor="start" x="288" y="-280.3" font-family="Times,serif" font-size="14.00">productCategory_id :integer</text>
<text text-anchor="start" x="288" y="-265.3" font-family="Times,serif" font-size="14.00">created_at :datetime</text>
<text text-anchor="start" x="288" y="-250.3" font-family="Times,serif" font-size="14.00">updated_at :datetime</text>
</g>
<!-- ProductCategory&#45;&gt;ProductCategorySize -->
<g id="edge2" class="edge"><title>ProductCategory&#45;&gt;ProductCategorySize</title>
<path fill="none" stroke="#1761e1" d="M323.248,-513.329C329.135,-488.044 335.672,-459.966 341.793,-433.676"/>
<ellipse fill="none" stroke="#1761e1" cx="322.306" cy="-517.376" rx="4.00001" ry="4.00001"/>
<polygon fill="#1761e1" stroke="#1761e1" points="341.849,-433.436 348.499,-424.717 342.983,-428.566 344.116,-423.697 344.116,-423.697 344.116,-423.697 342.983,-428.566 339.734,-422.676 341.849,-433.436 341.849,-433.436"/>
</g>
<!-- User -->
<g id="node5" class="node"><title>User</title>
<path fill="none" stroke="black" d="M406.5,-544C406.5,-544 513.5,-544 513.5,-544 519.5,-544 525.5,-550 525.5,-556 525.5,-556 525.5,-638 525.5,-638 525.5,-644 519.5,-650 513.5,-650 513.5,-650 406.5,-650 406.5,-650 400.5,-650 394.5,-644 394.5,-638 394.5,-638 394.5,-556 394.5,-556 394.5,-550 400.5,-544 406.5,-544"/>
<text text-anchor="middle" x="460" y="-634.8" font-family="Times,serif" font-size="14.00">User</text>
<polyline fill="none" stroke="black" points="394.5,-627 525.5,-627 "/>
<text text-anchor="start" x="402.5" y="-611.8" font-family="Times,serif" font-size="14.00">id :integer</text>
<text text-anchor="start" x="402.5" y="-596.8" font-family="Times,serif" font-size="14.00">name :string</text>
<text text-anchor="start" x="402.5" y="-581.8" font-family="Times,serif" font-size="14.00">email :string</text>
<text text-anchor="start" x="402.5" y="-566.8" font-family="Times,serif" font-size="14.00">created_at :datetime</text>
<text text-anchor="start" x="402.5" y="-551.8" font-family="Times,serif" font-size="14.00">updated_at :datetime</text>
</g>
<!-- ProductAddOnList -->
<g id="node6" class="node"><title>ProductAddOnList</title>
<path fill="none" stroke="black" d="M555.5,-499C555.5,-499 694.5,-499 694.5,-499 700.5,-499 706.5,-505 706.5,-511 706.5,-511 706.5,-683 706.5,-683 706.5,-689 700.5,-695 694.5,-695 694.5,-695 555.5,-695 555.5,-695 549.5,-695 543.5,-689 543.5,-683 543.5,-683 543.5,-511 543.5,-511 543.5,-505 549.5,-499 555.5,-499"/>
<text text-anchor="middle" x="625" y="-679.8" font-family="Times,serif" font-size="14.00">ProductAddOnList</text>
<polyline fill="none" stroke="black" points="543.5,-672 706.5,-672 "/>
<text text-anchor="start" x="551.5" y="-656.8" font-family="Times,serif" font-size="14.00">id :integer</text>
<text text-anchor="start" x="551.5" y="-641.8" font-family="Times,serif" font-size="14.00">name :string</text>
<text text-anchor="start" x="551.5" y="-626.8" font-family="Times,serif" font-size="14.00">onlineViewLabel :string</text>
<text text-anchor="start" x="551.5" y="-611.8" font-family="Times,serif" font-size="14.00">posViewLabel :string</text>
<text text-anchor="start" x="551.5" y="-596.8" font-family="Times,serif" font-size="14.00">sortListByIndex :boolean</text>
<text text-anchor="start" x="551.5" y="-581.8" font-family="Times,serif" font-size="14.00">sortListByName :boolean</text>
<text text-anchor="start" x="551.5" y="-566.8" font-family="Times,serif" font-size="14.00">multipleSelection :boolean</text>
<text text-anchor="start" x="551.5" y="-551.8" font-family="Times,serif" font-size="14.00">enabled :boolean</text>
<text text-anchor="start" x="551.5" y="-536.8" font-family="Times,serif" font-size="14.00">user_id :integer</text>
<text text-anchor="start" x="551.5" y="-521.8" font-family="Times,serif" font-size="14.00">created_at :datetime</text>
<text text-anchor="start" x="551.5" y="-506.8" font-family="Times,serif" font-size="14.00">updated_at :datetime</text>
</g>
<!-- ProductAddOnListItem -->
<g id="node9" class="node"><title>ProductAddOnListItem</title>
<path fill="none" stroke="black" d="M629,-272.5C629,-272.5 795,-272.5 795,-272.5 801,-272.5 807,-278.5 807,-284.5 807,-284.5 807,-381.5 807,-381.5 807,-387.5 801,-393.5 795,-393.5 795,-393.5 629,-393.5 629,-393.5 623,-393.5 617,-387.5 617,-381.5 617,-381.5 617,-284.5 617,-284.5 617,-278.5 623,-272.5 629,-272.5"/>
<text text-anchor="middle" x="712" y="-378.3" font-family="Times,serif" font-size="14.00">ProductAddOnListItem</text>
<polyline fill="none" stroke="black" points="617,-370.5 807,-370.5 "/>
<text text-anchor="start" x="625" y="-355.3" font-family="Times,serif" font-size="14.00">id :integer</text>
<text text-anchor="start" x="625" y="-340.3" font-family="Times,serif" font-size="14.00">user_id :integer</text>
<text text-anchor="start" x="625" y="-325.3" font-family="Times,serif" font-size="14.00">product_add_on_list_id :integer</text>
<text text-anchor="start" x="625" y="-310.3" font-family="Times,serif" font-size="14.00">product_add_on_id :integer</text>
<text text-anchor="start" x="625" y="-295.3" font-family="Times,serif" font-size="14.00">created_at :datetime</text>
<text text-anchor="start" x="625" y="-280.3" font-family="Times,serif" font-size="14.00">updated_at :datetime</text>
</g>
<!-- ProductAddOnList&#45;&gt;ProductAddOnListItem -->
<g id="edge4" class="edge"><title>ProductAddOnList&#45;&gt;ProductAddOnListItem</title>
<path fill="none" stroke="#d6e3b8" d="M659.895,-490.913C669.67,-461.477 680.048,-430.222 688.949,-403.419"/>
<ellipse fill="none" stroke="#d6e3b8" cx="658.533" cy="-495.017" rx="4.00001" ry="4.00001"/>
<polygon fill="#d6e3b8" stroke="#d6e3b8" points="689.005,-403.248 696.427,-395.176 690.581,-398.503 692.157,-393.758 692.157,-393.758 692.157,-393.758 690.581,-398.503 687.886,-392.34 689.005,-403.248 689.005,-403.248"/>
</g>
<!-- ProductAddOn -->
<g id="node8" class="node"><title>ProductAddOn</title>
<path fill="none" stroke="black" d="M736.5,-499C736.5,-499 861.5,-499 861.5,-499 867.5,-499 873.5,-505 873.5,-511 873.5,-511 873.5,-683 873.5,-683 873.5,-689 867.5,-695 861.5,-695 861.5,-695 736.5,-695 736.5,-695 730.5,-695 724.5,-689 724.5,-683 724.5,-683 724.5,-511 724.5,-511 724.5,-505 730.5,-499 736.5,-499"/>
<text text-anchor="middle" x="799" y="-679.8" font-family="Times,serif" font-size="14.00">ProductAddOn</text>
<polyline fill="none" stroke="black" points="724.5,-672 873.5,-672 "/>
<text text-anchor="start" x="732.5" y="-656.8" font-family="Times,serif" font-size="14.00">id :integer</text>
<text text-anchor="start" x="732.5" y="-641.8" font-family="Times,serif" font-size="14.00">name :string</text>
<text text-anchor="start" x="732.5" y="-626.8" font-family="Times,serif" font-size="14.00">onlineViewLabel :string</text>
<text text-anchor="start" x="732.5" y="-611.8" font-family="Times,serif" font-size="14.00">posViewLabel :string</text>
<text text-anchor="start" x="732.5" y="-596.8" font-family="Times,serif" font-size="14.00">printLabel :string</text>
<text text-anchor="start" x="732.5" y="-581.8" font-family="Times,serif" font-size="14.00">displayIndex :integer</text>
<text text-anchor="start" x="732.5" y="-566.8" font-family="Times,serif" font-size="14.00">visibleOnline :boolean</text>
<text text-anchor="start" x="732.5" y="-551.8" font-family="Times,serif" font-size="14.00">visiblePos :boolean</text>
<text text-anchor="start" x="732.5" y="-536.8" font-family="Times,serif" font-size="14.00">user_id :integer</text>
<text text-anchor="start" x="732.5" y="-521.8" font-family="Times,serif" font-size="14.00">created_at :datetime</text>
<text text-anchor="start" x="732.5" y="-506.8" font-family="Times,serif" font-size="14.00">updated_at :datetime</text>
</g>
<!-- ProductAddOn&#45;&gt;ProductAddOnListItem -->
<g id="edge5" class="edge"><title>ProductAddOn&#45;&gt;ProductAddOnListItem</title>
<path fill="none" stroke="#6238f8" d="M764.105,-490.913C754.33,-461.477 743.952,-430.222 735.051,-403.419"/>
<ellipse fill="none" stroke="#6238f8" cx="765.467" cy="-495.017" rx="4.00001" ry="4.00001"/>
<polygon fill="#6238f8" stroke="#6238f8" points="734.995,-403.248 736.114,-392.34 733.419,-398.503 731.843,-393.758 731.843,-393.758 731.843,-393.758 733.419,-398.503 727.573,-395.176 734.995,-403.248 734.995,-403.248"/>
</g>
</g>
</svg>
