<?xml version="1.0" encoding="UTF-8" standalone="no"?>
<!DOCTYPE svg PUBLIC "-//W3C//DTD SVG 1.1//EN"
 "http://www.w3.org/Graphics/SVG/1.1/DTD/svg11.dtd">
<!-- Generated by graphviz version 2.36.0 (20140111.2315)
 -->
<!-- Title: models_diagram Pages: 1 -->
<svg width="886pt" height="230pt"
 viewBox="0.00 0.00 886.00 230.00" xmlns="http://www.w3.org/2000/svg" xmlns:xlink="http://www.w3.org/1999/xlink">
<g id="graph0" class="graph" transform="scale(1 1) rotate(0) translate(4 226)">
<title>models_diagram</title>
<polygon fill="white" stroke="none" points="-4,4 -4,-226 882,-226 882,4 -4,4"/>
<!-- _diagram_info -->
<g id="node1" class="node"><title>_diagram_info</title>
<text text-anchor="start" x="7" y="-207.6" font-family="Times,serif" font-size="13.00">Models diagram</text>
<text text-anchor="start" x="7" y="-193.6" font-family="Times,serif" font-size="13.00">Date: Dec 10 2014 &#45; 14:45</text>
<text text-anchor="start" x="7" y="-179.6" font-family="Times,serif" font-size="13.00">Migration version: 20141210105823</text>
<text text-anchor="start" x="7" y="-165.6" font-family="Times,serif" font-size="13.00">Generated by RailRoady 1.2.0</text>
<text text-anchor="start" x="7" y="-151.6" font-family="Times,serif" font-size="13.00">http://railroady.prestonlee.com</text>
</g>
<!-- ProductGroup -->
<g id="node2" class="node"><title>ProductGroup</title>
<ellipse fill="none" stroke="black" cx="291" cy="-183" rx="60.1672" ry="18"/>
<text text-anchor="middle" x="291" y="-179.3" font-family="Times,serif" font-size="14.00">ProductGroup</text>
</g>
<!-- ProductGroupAddOnList -->
<g id="node7" class="node"><title>ProductGroupAddOnList</title>
<ellipse fill="none" stroke="black" cx="291" cy="-90" rx="100.137" ry="18"/>
<text text-anchor="middle" x="291" y="-86.3" font-family="Times,serif" font-size="14.00">ProductGroupAddOnList</text>
</g>
<!-- ProductGroup&#45;&gt;ProductGroupAddOnList -->
<g id="edge1" class="edge"><title>ProductGroup&#45;&gt;ProductGroupAddOnList</title>
<path fill="none" stroke="#dea6a8" d="M291,-156.729C291,-144.725 291,-130.362 291,-118.129"/>
<ellipse fill="none" stroke="#dea6a8" cx="291" cy="-160.884" rx="4" ry="4"/>
<polygon fill="#dea6a8" stroke="#dea6a8" points="291,-118.04 295.5,-108.04 291,-113.04 291,-108.04 291,-108.04 291,-108.04 291,-113.04 286.5,-108.04 291,-118.04 291,-118.04"/>
</g>
<!-- ProductCategory -->
<g id="node3" class="node"><title>ProductCategory</title>
<ellipse fill="none" stroke="black" cx="479" cy="-90" rx="70.2909" ry="18"/>
<text text-anchor="middle" x="479" y="-86.3" font-family="Times,serif" font-size="14.00">ProductCategory</text>
</g>
<!-- ProductCategorySize -->
<g id="node4" class="node"><title>ProductCategorySize</title>
<ellipse fill="none" stroke="black" cx="479" cy="-18" rx="85.2138" ry="18"/>
<text text-anchor="middle" x="479" y="-14.3" font-family="Times,serif" font-size="14.00">ProductCategorySize</text>
</g>
<!-- ProductCategory&#45;&gt;ProductCategorySize -->
<g id="edge2" class="edge"><title>ProductCategory&#45;&gt;ProductCategorySize</title>
<path fill="none" stroke="#67b0ed" d="M479,-63.6398C479,-58.0629 479,-52.1319 479,-46.4761"/>
<ellipse fill="none" stroke="#67b0ed" cx="479" cy="-67.6966" rx="4" ry="4"/>
<polygon fill="#67b0ed" stroke="#67b0ed" points="479,-46.1043 483.5,-36.1043 479,-41.1043 479,-36.1043 479,-36.1043 479,-36.1043 479,-41.1043 474.5,-36.1044 479,-46.1043 479,-46.1043"/>
</g>
<!-- User -->
<g id="node5" class="node"><title>User</title>
<ellipse fill="none" stroke="black" cx="479" cy="-183" rx="26.949" ry="18"/>
<text text-anchor="middle" x="479" y="-179.3" font-family="Times,serif" font-size="14.00">User</text>
</g>
<!-- User&#45;&gt;ProductCategory -->
<g id="edge3" class="edge"><title>User&#45;&gt;ProductCategory</title>
<path fill="none" stroke="#5c855d" d="M479,-156.729C479,-144.725 479,-130.362 479,-118.129"/>
<ellipse fill="none" stroke="#5c855d" cx="479" cy="-160.884" rx="4" ry="4"/>
<polygon fill="#5c855d" stroke="#5c855d" points="479,-118.04 483.5,-108.04 479,-113.04 479,-108.04 479,-108.04 479,-108.04 479,-113.04 474.5,-108.04 479,-118.04 479,-118.04"/>
</g>
<!-- ProductAddOnList -->
<g id="node6" class="node"><title>ProductAddOnList</title>
<ellipse fill="none" stroke="black" cx="656" cy="-183" rx="77.0154" ry="18"/>
<text text-anchor="middle" x="656" y="-179.3" font-family="Times,serif" font-size="14.00">ProductAddOnList</text>
</g>
<!-- ProductAddOnListItem -->
<g id="node9" class="node"><title>ProductAddOnListItem</title>
<ellipse fill="none" stroke="black" cx="711" cy="-90" rx="94.3628" ry="18"/>
<text text-anchor="middle" x="711" y="-86.3" font-family="Times,serif" font-size="14.00">ProductAddOnListItem</text>
</g>
<!-- ProductAddOnList&#45;&gt;ProductAddOnListItem -->
<g id="edge4" class="edge"><title>ProductAddOnList&#45;&gt;ProductAddOnListItem</title>
<path fill="none" stroke="#ad4a7b" d="M670.498,-158.013C678.143,-145.364 687.529,-129.835 695.34,-116.911"/>
<ellipse fill="none" stroke="#ad4a7b" cx="668.414" cy="-161.46" rx="4.00002" ry="4.00002"/>
<polygon fill="#ad4a7b" stroke="#ad4a7b" points="695.529,-116.598 704.553,-110.367 698.115,-112.319 700.701,-108.04 700.701,-108.04 700.701,-108.04 698.115,-112.319 696.85,-105.712 695.529,-116.598 695.529,-116.598"/>
</g>
<!-- ProductAddOn -->
<g id="node8" class="node"><title>ProductAddOn</title>
<ellipse fill="none" stroke="black" cx="815" cy="-183" rx="63.5411" ry="18"/>
<text text-anchor="middle" x="815" y="-179.3" font-family="Times,serif" font-size="14.00">ProductAddOn</text>
</g>
<!-- ProductAddOn&#45;&gt;ProductAddOnListItem -->
<g id="edge5" class="edge"><title>ProductAddOn&#45;&gt;ProductAddOnListItem</title>
<path fill="none" stroke="#7b3449" d="M789.939,-160.072C774.282,-146.371 754.122,-128.732 738.095,-114.708"/>
<ellipse fill="none" stroke="#7b3449" cx="793.397" cy="-163.097" rx="4.00002" ry="4.00002"/>
<polygon fill="#7b3449" stroke="#7b3449" points="737.662,-114.329 733.099,-104.357 733.899,-111.036 730.136,-107.744 730.136,-107.744 730.136,-107.744 733.899,-111.036 727.172,-111.13 737.662,-114.329 737.662,-114.329"/>
</g>
</g>
</svg>
