<?xml version="1.0" encoding="UTF-8" standalone="no"?>
<!DOCTYPE svg PUBLIC "-//W3C//DTD SVG 1.1//EN"
 "http://www.w3.org/Graphics/SVG/1.1/DTD/svg11.dtd">
<!-- Generated by graphviz version 2.36.0 (20140111.2315)
 -->
<!-- Title: models_diagram Pages: 1 -->
<svg width="901pt" height="734pt"
 viewBox="0.00 0.00 901.00 734.00" xmlns="http://www.w3.org/2000/svg" xmlns:xlink="http://www.w3.org/1999/xlink">
<g id="graph0" class="graph" transform="scale(1 1) rotate(0) translate(4 730)">
<title>models_diagram</title>
<polygon fill="white" stroke="none" points="-4,4 -4,-730 897,-730 897,4 -4,4"/>
<!-- _diagram_info -->
<g id="node1" class="node"><title>_diagram_info</title>
<text text-anchor="start" x="7" y="-636.6" font-family="Times,serif" font-size="13.00">Models diagram</text>
<text text-anchor="start" x="7" y="-622.6" font-family="Times,serif" font-size="13.00">Date: Dec 09 2014 &#45; 17:19</text>
<text text-anchor="start" x="7" y="-608.6" font-family="Times,serif" font-size="13.00">Migration version: 20141209163944</text>
<text text-anchor="start" x="7" y="-594.6" font-family="Times,serif" font-size="13.00">Generated by RailRoady 1.2.0</text>
<text text-anchor="start" x="7" y="-580.6" font-family="Times,serif" font-size="13.00">http://railroady.prestonlee.com</text>
</g>
<!-- ProductGroup -->
<g id="node2" class="node"><title>ProductGroup</title>
<path fill="none" stroke="black" d="M110.5,-205C110.5,-205 259.5,-205 259.5,-205 265.5,-205 271.5,-211 271.5,-217 271.5,-217 271.5,-449 271.5,-449 271.5,-455 265.5,-461 259.5,-461 259.5,-461 110.5,-461 110.5,-461 104.5,-461 98.5,-455 98.5,-449 98.5,-449 98.5,-217 98.5,-217 98.5,-211 104.5,-205 110.5,-205"/>
<text text-anchor="middle" x="185" y="-445.8" font-family="Times,serif" font-size="14.00">ProductGroup</text>
<polyline fill="none" stroke="black" points="98.5,-438 271.5,-438 "/>
<text text-anchor="start" x="106.5" y="-422.8" font-family="Times,serif" font-size="14.00">id :integer</text>
<text text-anchor="start" x="106.5" y="-407.8" font-family="Times,serif" font-size="14.00">name :string</text>
<text text-anchor="start" x="106.5" y="-392.8" font-family="Times,serif" font-size="14.00">description :string</text>
<text text-anchor="start" x="106.5" y="-377.8" font-family="Times,serif" font-size="14.00">onlineViewLabel :boolean</text>
<text text-anchor="start" x="106.5" y="-362.8" font-family="Times,serif" font-size="14.00">posViewLabel :string</text>
<text text-anchor="start" x="106.5" y="-347.8" font-family="Times,serif" font-size="14.00">headerImagePath :string</text>
<text text-anchor="start" x="106.5" y="-332.8" font-family="Times,serif" font-size="14.00">displayIndex :integer</text>
<text text-anchor="start" x="106.5" y="-317.8" font-family="Times,serif" font-size="14.00">visibleOnline :boolean</text>
<text text-anchor="start" x="106.5" y="-302.8" font-family="Times,serif" font-size="14.00">visibleOnPos :boolean</text>
<text text-anchor="start" x="106.5" y="-287.8" font-family="Times,serif" font-size="14.00">enabled :boolean</text>
<text text-anchor="start" x="106.5" y="-272.8" font-family="Times,serif" font-size="14.00">deleted :boolean</text>
<text text-anchor="start" x="106.5" y="-257.8" font-family="Times,serif" font-size="14.00">product_category_id :integer</text>
<text text-anchor="start" x="106.5" y="-242.8" font-family="Times,serif" font-size="14.00">user_id :integer</text>
<text text-anchor="start" x="106.5" y="-227.8" font-family="Times,serif" font-size="14.00">created_at :datetime</text>
<text text-anchor="start" x="106.5" y="-212.8" font-family="Times,serif" font-size="14.00">updated_at :datetime</text>
</g>
<!-- ProductGroupAddOnList -->
<g id="node7" class="node"><title>ProductGroupAddOnList</title>
<path fill="none" stroke="black" d="M83,-1C83,-1 287,-1 287,-1 293,-1 299,-7 299,-13 299,-13 299,-155 299,-155 299,-161 293,-167 287,-167 287,-167 83,-167 83,-167 77,-167 71,-161 71,-155 71,-155 71,-13 71,-13 71,-7 77,-1 83,-1"/>
<text text-anchor="middle" x="185" y="-151.8" font-family="Times,serif" font-size="14.00">ProductGroupAddOnList</text>
<polyline fill="none" stroke="black" points="71,-144 299,-144 "/>
<text text-anchor="start" x="79" y="-128.8" font-family="Times,serif" font-size="14.00">id :integer</text>
<text text-anchor="start" x="79" y="-113.8" font-family="Times,serif" font-size="14.00">displayIndex :integer</text>
<text text-anchor="start" x="79" y="-98.8" font-family="Times,serif" font-size="14.00">logicIndex :integer</text>
<text text-anchor="start" x="79" y="-83.8" font-family="Times,serif" font-size="14.00">required :boolean</text>
<text text-anchor="start" x="79" y="-68.8" font-family="Times,serif" font-size="14.00">product_group_id :integer</text>
<text text-anchor="start" x="79" y="-53.8" font-family="Times,serif" font-size="14.00">product_group_add_on_list_id :integer</text>
<text text-anchor="start" x="79" y="-38.8" font-family="Times,serif" font-size="14.00">user_id :integer</text>
<text text-anchor="start" x="79" y="-23.8" font-family="Times,serif" font-size="14.00">created_at :datetime</text>
<text text-anchor="start" x="79" y="-8.8" font-family="Times,serif" font-size="14.00">updated_at :datetime</text>
</g>
<!-- ProductGroup&#45;&gt;ProductGroupAddOnList -->
<g id="edge1" class="edge"><title>ProductGroup&#45;&gt;ProductGroupAddOnList</title>
<path fill="none" stroke="#b8b676" d="M185,-196.816C185,-190.386 185,-183.999 185,-177.724"/>
<ellipse fill="none" stroke="#b8b676" cx="185" cy="-200.882" rx="4" ry="4"/>
<polygon fill="#b8b676" stroke="#b8b676" points="185,-177.285 189.5,-167.285 185,-172.285 185,-167.285 185,-167.285 185,-167.285 185,-172.285 180.5,-167.285 185,-177.285 185,-177.285"/>
</g>
<!-- ProductCategory -->
<g id="node3" class="node"><title>ProductCategory</title>
<path fill="none" stroke="black" d="M243.5,-536.5C243.5,-536.5 364.5,-536.5 364.5,-536.5 370.5,-536.5 376.5,-542.5 376.5,-548.5 376.5,-548.5 376.5,-675.5 376.5,-675.5 376.5,-681.5 370.5,-687.5 364.5,-687.5 364.5,-687.5 243.5,-687.5 243.5,-687.5 237.5,-687.5 231.5,-681.5 231.5,-675.5 231.5,-675.5 231.5,-548.5 231.5,-548.5 231.5,-542.5 237.5,-536.5 243.5,-536.5"/>
<text text-anchor="middle" x="304" y="-672.3" font-family="Times,serif" font-size="14.00">ProductCategory</text>
<polyline fill="none" stroke="black" points="231.5,-664.5 376.5,-664.5 "/>
<text text-anchor="start" x="239.5" y="-649.3" font-family="Times,serif" font-size="14.00">id :integer</text>
<text text-anchor="start" x="239.5" y="-634.3" font-family="Times,serif" font-size="14.00">name :string</text>
<text text-anchor="start" x="239.5" y="-619.3" font-family="Times,serif" font-size="14.00">shortDescription :string</text>
<text text-anchor="start" x="239.5" y="-604.3" font-family="Times,serif" font-size="14.00">enabled :boolean</text>
<text text-anchor="start" x="239.5" y="-589.3" font-family="Times,serif" font-size="14.00">deleted :boolean</text>
<text text-anchor="start" x="239.5" y="-574.3" font-family="Times,serif" font-size="14.00">user_id :integer</text>
<text text-anchor="start" x="239.5" y="-559.3" font-family="Times,serif" font-size="14.00">created_at :datetime</text>
<text text-anchor="start" x="239.5" y="-544.3" font-family="Times,serif" font-size="14.00">updated_at :datetime</text>
</g>
<!-- ProductCategory&#45;&gt;ProductGroup -->
<g id="edge3" class="edge"><title>ProductCategory&#45;&gt;ProductGroup</title>
<path fill="none" stroke="#afa308" d="M268.753,-528.955C260.807,-510.459 252.165,-490.343 243.55,-470.288"/>
<ellipse fill="none" stroke="#afa308" cx="270.375" cy="-532.729" rx="4.00002" ry="4.00002"/>
<polygon fill="#afa308" stroke="#afa308" points="243.543,-470.272 243.73,-459.308 241.569,-465.678 239.596,-461.084 239.596,-461.084 239.596,-461.084 241.569,-465.678 235.461,-462.861 243.543,-470.272 243.543,-470.272"/>
</g>
<!-- ProductCategorySize -->
<g id="node4" class="node"><title>ProductCategorySize</title>
<path fill="none" stroke="black" d="M302,-242.5C302,-242.5 448,-242.5 448,-242.5 454,-242.5 460,-248.5 460,-254.5 460,-254.5 460,-411.5 460,-411.5 460,-417.5 454,-423.5 448,-423.5 448,-423.5 302,-423.5 302,-423.5 296,-423.5 290,-417.5 290,-411.5 290,-411.5 290,-254.5 290,-254.5 290,-248.5 296,-242.5 302,-242.5"/>
<text text-anchor="middle" x="375" y="-408.3" font-family="Times,serif" font-size="14.00">ProductCategorySize</text>
<polyline fill="none" stroke="black" points="290,-400.5 460,-400.5 "/>
<text text-anchor="start" x="298" y="-385.3" font-family="Times,serif" font-size="14.00">id :integer</text>
<text text-anchor="start" x="298" y="-370.3" font-family="Times,serif" font-size="14.00">prefixLabelOnline :string</text>
<text text-anchor="start" x="298" y="-355.3" font-family="Times,serif" font-size="14.00">prefixLabelPrint :string</text>
<text text-anchor="start" x="298" y="-340.3" font-family="Times,serif" font-size="14.00">prefixLabelPos :string</text>
<text text-anchor="start" x="298" y="-325.3" font-family="Times,serif" font-size="14.00">postLabelOnline :string</text>
<text text-anchor="start" x="298" y="-310.3" font-family="Times,serif" font-size="14.00">postLabelPrint :string</text>
<text text-anchor="start" x="298" y="-295.3" font-family="Times,serif" font-size="14.00">postLabelPos :string</text>
<text text-anchor="start" x="298" y="-280.3" font-family="Times,serif" font-size="14.00">productCategory_id :integer</text>
<text text-anchor="start" x="298" y="-265.3" font-family="Times,serif" font-size="14.00">created_at :datetime</text>
<text text-anchor="start" x="298" y="-250.3" font-family="Times,serif" font-size="14.00">updated_at :datetime</text>
</g>
<!-- ProductCategory&#45;&gt;ProductCategorySize -->
<g id="edge2" class="edge"><title>ProductCategory&#45;&gt;ProductCategorySize</title>
<path fill="none" stroke="#fefc25" d="M325.132,-528.554C332.782,-498.708 341.503,-464.685 349.49,-433.526"/>
<ellipse fill="none" stroke="#fefc25" cx="324.113" cy="-532.53" rx="4.00001" ry="4.00001"/>
<polygon fill="#fefc25" stroke="#fefc25" points="349.572,-433.206 356.414,-424.637 350.813,-428.363 352.055,-423.519 352.055,-423.519 352.055,-423.519 350.813,-428.363 347.696,-422.402 349.572,-433.206 349.572,-433.206"/>
</g>
<!-- User -->
<g id="node5" class="node"><title>User</title>
<path fill="none" stroke="black" d="M407,-499C407,-499 533,-499 533,-499 539,-499 545,-505 545,-511 545,-511 545,-713 545,-713 545,-719 539,-725 533,-725 533,-725 407,-725 407,-725 401,-725 395,-719 395,-713 395,-713 395,-511 395,-511 395,-505 401,-499 407,-499"/>
<text text-anchor="middle" x="470" y="-709.8" font-family="Times,serif" font-size="14.00">User</text>
<polyline fill="none" stroke="black" points="395,-702 545,-702 "/>
<text text-anchor="start" x="403" y="-686.8" font-family="Times,serif" font-size="14.00">id :integer</text>
<text text-anchor="start" x="403" y="-671.8" font-family="Times,serif" font-size="14.00">name :string</text>
<text text-anchor="start" x="403" y="-656.8" font-family="Times,serif" font-size="14.00">email :string</text>
<text text-anchor="start" x="403" y="-641.8" font-family="Times,serif" font-size="14.00">created_at :datetime</text>
<text text-anchor="start" x="403" y="-626.8" font-family="Times,serif" font-size="14.00">updated_at :datetime</text>
<text text-anchor="start" x="403" y="-611.8" font-family="Times,serif" font-size="14.00">password_digest :string</text>
<text text-anchor="start" x="403" y="-596.8" font-family="Times,serif" font-size="14.00">remember_digest :string</text>
<text text-anchor="start" x="403" y="-581.8" font-family="Times,serif" font-size="14.00">admin :boolean</text>
<text text-anchor="start" x="403" y="-566.8" font-family="Times,serif" font-size="14.00">activation_digest :string</text>
<text text-anchor="start" x="403" y="-551.8" font-family="Times,serif" font-size="14.00">activated :boolean</text>
<text text-anchor="start" x="403" y="-536.8" font-family="Times,serif" font-size="14.00">activated_at :datetime</text>
<text text-anchor="start" x="403" y="-521.8" font-family="Times,serif" font-size="14.00">reset_digest :string</text>
<text text-anchor="start" x="403" y="-506.8" font-family="Times,serif" font-size="14.00">reset_sent_at :datetime</text>
</g>
<!-- ProductAddOnList -->
<g id="node6" class="node"><title>ProductAddOnList</title>
<path fill="none" stroke="black" d="M575.5,-514C575.5,-514 714.5,-514 714.5,-514 720.5,-514 726.5,-520 726.5,-526 726.5,-526 726.5,-698 726.5,-698 726.5,-704 720.5,-710 714.5,-710 714.5,-710 575.5,-710 575.5,-710 569.5,-710 563.5,-704 563.5,-698 563.5,-698 563.5,-526 563.5,-526 563.5,-520 569.5,-514 575.5,-514"/>
<text text-anchor="middle" x="645" y="-694.8" font-family="Times,serif" font-size="14.00">ProductAddOnList</text>
<polyline fill="none" stroke="black" points="563.5,-687 726.5,-687 "/>
<text text-anchor="start" x="571.5" y="-671.8" font-family="Times,serif" font-size="14.00">id :integer</text>
<text text-anchor="start" x="571.5" y="-656.8" font-family="Times,serif" font-size="14.00">name :string</text>
<text text-anchor="start" x="571.5" y="-641.8" font-family="Times,serif" font-size="14.00">onlineViewLabel :string</text>
<text text-anchor="start" x="571.5" y="-626.8" font-family="Times,serif" font-size="14.00">posViewLabel :string</text>
<text text-anchor="start" x="571.5" y="-611.8" font-family="Times,serif" font-size="14.00">sortListByIndex :boolean</text>
<text text-anchor="start" x="571.5" y="-596.8" font-family="Times,serif" font-size="14.00">sortListByName :boolean</text>
<text text-anchor="start" x="571.5" y="-581.8" font-family="Times,serif" font-size="14.00">multipleSelection :boolean</text>
<text text-anchor="start" x="571.5" y="-566.8" font-family="Times,serif" font-size="14.00">enabled :boolean</text>
<text text-anchor="start" x="571.5" y="-551.8" font-family="Times,serif" font-size="14.00">user_id :integer</text>
<text text-anchor="start" x="571.5" y="-536.8" font-family="Times,serif" font-size="14.00">created_at :datetime</text>
<text text-anchor="start" x="571.5" y="-521.8" font-family="Times,serif" font-size="14.00">updated_at :datetime</text>
</g>
<!-- ProductAddOnListItem -->
<g id="node9" class="node"><title>ProductAddOnListItem</title>
<path fill="none" stroke="black" d="M649,-272.5C649,-272.5 815,-272.5 815,-272.5 821,-272.5 827,-278.5 827,-284.5 827,-284.5 827,-381.5 827,-381.5 827,-387.5 821,-393.5 815,-393.5 815,-393.5 649,-393.5 649,-393.5 643,-393.5 637,-387.5 637,-381.5 637,-381.5 637,-284.5 637,-284.5 637,-278.5 643,-272.5 649,-272.5"/>
<text text-anchor="middle" x="732" y="-378.3" font-family="Times,serif" font-size="14.00">ProductAddOnListItem</text>
<polyline fill="none" stroke="black" points="637,-370.5 827,-370.5 "/>
<text text-anchor="start" x="645" y="-355.3" font-family="Times,serif" font-size="14.00">id :integer</text>
<text text-anchor="start" x="645" y="-340.3" font-family="Times,serif" font-size="14.00">user_id :integer</text>
<text text-anchor="start" x="645" y="-325.3" font-family="Times,serif" font-size="14.00">product_add_on_list_id :integer</text>
<text text-anchor="start" x="645" y="-310.3" font-family="Times,serif" font-size="14.00">product_add_on_id :integer</text>
<text text-anchor="start" x="645" y="-295.3" font-family="Times,serif" font-size="14.00">created_at :datetime</text>
<text text-anchor="start" x="645" y="-280.3" font-family="Times,serif" font-size="14.00">updated_at :datetime</text>
</g>
<!-- ProductAddOnList&#45;&gt;ProductAddOnListItem -->
<g id="edge4" class="edge"><title>ProductAddOnList&#45;&gt;ProductAddOnListItem</title>
<path fill="none" stroke="#4deaa2" d="M678.077,-505.686C688.838,-471.425 700.502,-434.286 710.221,-403.343"/>
<ellipse fill="none" stroke="#4deaa2" cx="676.749" cy="-509.913" rx="4.00001" ry="4.00001"/>
<polygon fill="#4deaa2" stroke="#4deaa2" points="710.308,-403.066 717.598,-394.874 711.806,-398.295 713.304,-393.525 713.304,-393.525 713.304,-393.525 711.806,-398.295 709.011,-392.177 710.308,-403.066 710.308,-403.066"/>
</g>
<!-- ProductAddOn -->
<g id="node8" class="node"><title>ProductAddOn</title>
<path fill="none" stroke="black" d="M756.5,-514C756.5,-514 881.5,-514 881.5,-514 887.5,-514 893.5,-520 893.5,-526 893.5,-526 893.5,-698 893.5,-698 893.5,-704 887.5,-710 881.5,-710 881.5,-710 756.5,-710 756.5,-710 750.5,-710 744.5,-704 744.5,-698 744.5,-698 744.5,-526 744.5,-526 744.5,-520 750.5,-514 756.5,-514"/>
<text text-anchor="middle" x="819" y="-694.8" font-family="Times,serif" font-size="14.00">ProductAddOn</text>
<polyline fill="none" stroke="black" points="744.5,-687 893.5,-687 "/>
<text text-anchor="start" x="752.5" y="-671.8" font-family="Times,serif" font-size="14.00">id :integer</text>
<text text-anchor="start" x="752.5" y="-656.8" font-family="Times,serif" font-size="14.00">name :string</text>
<text text-anchor="start" x="752.5" y="-641.8" font-family="Times,serif" font-size="14.00">onlineViewLabel :string</text>
<text text-anchor="start" x="752.5" y="-626.8" font-family="Times,serif" font-size="14.00">posViewLabel :string</text>
<text text-anchor="start" x="752.5" y="-611.8" font-family="Times,serif" font-size="14.00">printLabel :string</text>
<text text-anchor="start" x="752.5" y="-596.8" font-family="Times,serif" font-size="14.00">displayIndex :integer</text>
<text text-anchor="start" x="752.5" y="-581.8" font-family="Times,serif" font-size="14.00">visibleOnline :boolean</text>
<text text-anchor="start" x="752.5" y="-566.8" font-family="Times,serif" font-size="14.00">visiblePos :boolean</text>
<text text-anchor="start" x="752.5" y="-551.8" font-family="Times,serif" font-size="14.00">user_id :integer</text>
<text text-anchor="start" x="752.5" y="-536.8" font-family="Times,serif" font-size="14.00">created_at :datetime</text>
<text text-anchor="start" x="752.5" y="-521.8" font-family="Times,serif" font-size="14.00">updated_at :datetime</text>
</g>
<!-- ProductAddOn&#45;&gt;ProductAddOnListItem -->
<g id="edge5" class="edge"><title>ProductAddOn&#45;&gt;ProductAddOnListItem</title>
<path fill="none" stroke="#955936" d="M785.923,-505.686C775.162,-471.425 763.498,-434.286 753.779,-403.343"/>
<ellipse fill="none" stroke="#955936" cx="787.251" cy="-509.913" rx="4.00001" ry="4.00001"/>
<polygon fill="#955936" stroke="#955936" points="753.692,-403.066 754.989,-392.177 752.194,-398.295 750.696,-393.525 750.696,-393.525 750.696,-393.525 752.194,-398.295 746.402,-394.874 753.692,-403.066 753.692,-403.066"/>
</g>
</g>
</svg>
