<?xml version="1.0" encoding="UTF-8" standalone="no"?>
<!DOCTYPE svg PUBLIC "-//W3C//DTD SVG 1.1//EN"
 "http://www.w3.org/Graphics/SVG/1.1/DTD/svg11.dtd">
<!-- Generated by graphviz version 2.36.0 (20140111.2315)
 -->
<!-- Title: models_diagram Pages: 1 -->
<svg width="975pt" height="688pt"
 viewBox="0.00 0.00 975.00 688.00" xmlns="http://www.w3.org/2000/svg" xmlns:xlink="http://www.w3.org/1999/xlink">
<g id="graph0" class="graph" transform="scale(1 1) rotate(0) translate(4 684)">
<title>models_diagram</title>
<polygon fill="white" stroke="none" points="-4,4 -4,-684 971,-684 971,4 -4,4"/>
<!-- _diagram_info -->
<g id="node1" class="node"><title>_diagram_info</title>
<text text-anchor="start" x="7" y="-575.6" font-family="Times,serif" font-size="13.00">Models diagram</text>
<text text-anchor="start" x="7" y="-561.6" font-family="Times,serif" font-size="13.00">Date: Dec 10 2014 &#45; 14:45</text>
<text text-anchor="start" x="7" y="-547.6" font-family="Times,serif" font-size="13.00">Migration version: 20141210105823</text>
<text text-anchor="start" x="7" y="-533.6" font-family="Times,serif" font-size="13.00">Generated by RailRoady 1.2.0</text>
<text text-anchor="start" x="7" y="-519.6" font-family="Times,serif" font-size="13.00">http://railroady.prestonlee.com</text>
</g>
<!-- ProductGroup -->
<g id="node2" class="node"><title>ProductGroup</title>
<path fill="none" stroke="black" d="M243.5,-423C243.5,-423 392.5,-423 392.5,-423 398.5,-423 404.5,-429 404.5,-435 404.5,-435 404.5,-667 404.5,-667 404.5,-673 398.5,-679 392.5,-679 392.5,-679 243.5,-679 243.5,-679 237.5,-679 231.5,-673 231.5,-667 231.5,-667 231.5,-435 231.5,-435 231.5,-429 237.5,-423 243.5,-423"/>
<text text-anchor="middle" x="318" y="-663.8" font-family="Times,serif" font-size="14.00">ProductGroup</text>
<polyline fill="none" stroke="black" points="231.5,-656 404.5,-656 "/>
<text text-anchor="start" x="239.5" y="-640.8" font-family="Times,serif" font-size="14.00">id :integer</text>
<text text-anchor="start" x="239.5" y="-625.8" font-family="Times,serif" font-size="14.00">name :string</text>
<text text-anchor="start" x="239.5" y="-610.8" font-family="Times,serif" font-size="14.00">description :string</text>
<text text-anchor="start" x="239.5" y="-595.8" font-family="Times,serif" font-size="14.00">onlineViewLabel :string</text>
<text text-anchor="start" x="239.5" y="-580.8" font-family="Times,serif" font-size="14.00">posViewLabel :string</text>
<text text-anchor="start" x="239.5" y="-565.8" font-family="Times,serif" font-size="14.00">headerImagePath :string</text>
<text text-anchor="start" x="239.5" y="-550.8" font-family="Times,serif" font-size="14.00">displayIndex :integer</text>
<text text-anchor="start" x="239.5" y="-535.8" font-family="Times,serif" font-size="14.00">visibleOnline :boolean</text>
<text text-anchor="start" x="239.5" y="-520.8" font-family="Times,serif" font-size="14.00">visibleOnPos :boolean</text>
<text text-anchor="start" x="239.5" y="-505.8" font-family="Times,serif" font-size="14.00">enabled :boolean</text>
<text text-anchor="start" x="239.5" y="-490.8" font-family="Times,serif" font-size="14.00">deleted :boolean</text>
<text text-anchor="start" x="239.5" y="-475.8" font-family="Times,serif" font-size="14.00">user_id :integer</text>
<text text-anchor="start" x="239.5" y="-460.8" font-family="Times,serif" font-size="14.00">product_category_id :integer</text>
<text text-anchor="start" x="239.5" y="-445.8" font-family="Times,serif" font-size="14.00">created_at :datetime</text>
<text text-anchor="start" x="239.5" y="-430.8" font-family="Times,serif" font-size="14.00">updated_at :datetime</text>
</g>
<!-- ProductGroupAddOnList -->
<g id="node7" class="node"><title>ProductGroupAddOnList</title>
<path fill="none" stroke="black" d="M251,-219C251,-219 385,-219 385,-219 391,-219 397,-225 397,-231 397,-231 397,-373 397,-373 397,-379 391,-385 385,-385 385,-385 251,-385 251,-385 245,-385 239,-379 239,-373 239,-373 239,-231 239,-231 239,-225 245,-219 251,-219"/>
<text text-anchor="middle" x="318" y="-369.8" font-family="Times,serif" font-size="14.00">ProductGroupAddOnList</text>
<polyline fill="none" stroke="black" points="239,-362 397,-362 "/>
<text text-anchor="start" x="247" y="-346.8" font-family="Times,serif" font-size="14.00">id :integer</text>
<text text-anchor="start" x="247" y="-331.8" font-family="Times,serif" font-size="14.00">name :string</text>
<text text-anchor="start" x="247" y="-316.8" font-family="Times,serif" font-size="14.00">displayIndex :integer</text>
<text text-anchor="start" x="247" y="-301.8" font-family="Times,serif" font-size="14.00">logicIndex :integer</text>
<text text-anchor="start" x="247" y="-286.8" font-family="Times,serif" font-size="14.00">required :boolean</text>
<text text-anchor="start" x="247" y="-271.8" font-family="Times,serif" font-size="14.00">product_group_id :integer</text>
<text text-anchor="start" x="247" y="-256.8" font-family="Times,serif" font-size="14.00">user_id :integer</text>
<text text-anchor="start" x="247" y="-241.8" font-family="Times,serif" font-size="14.00">created_at :datetime</text>
<text text-anchor="start" x="247" y="-226.8" font-family="Times,serif" font-size="14.00">updated_at :datetime</text>
</g>
<!-- ProductGroup&#45;&gt;ProductGroupAddOnList -->
<g id="edge1" class="edge"><title>ProductGroup&#45;&gt;ProductGroupAddOnList</title>
<path fill="none" stroke="#437df8" d="M318,-414.816C318,-408.386 318,-401.999 318,-395.724"/>
<ellipse fill="none" stroke="#437df8" cx="318" cy="-418.882" rx="4" ry="4"/>
<polygon fill="#437df8" stroke="#437df8" points="318,-395.285 322.5,-385.285 318,-390.285 318,-385.285 318,-385.285 318,-385.285 318,-390.285 313.5,-385.285 318,-395.285 318,-395.285"/>
</g>
<!-- ProductCategory -->
<g id="node3" class="node"><title>ProductCategory</title>
<path fill="none" stroke="black" d="M437.5,-226.5C437.5,-226.5 558.5,-226.5 558.5,-226.5 564.5,-226.5 570.5,-232.5 570.5,-238.5 570.5,-238.5 570.5,-365.5 570.5,-365.5 570.5,-371.5 564.5,-377.5 558.5,-377.5 558.5,-377.5 437.5,-377.5 437.5,-377.5 431.5,-377.5 425.5,-371.5 425.5,-365.5 425.5,-365.5 425.5,-238.5 425.5,-238.5 425.5,-232.5 431.5,-226.5 437.5,-226.5"/>
<text text-anchor="middle" x="498" y="-362.3" font-family="Times,serif" font-size="14.00">ProductCategory</text>
<polyline fill="none" stroke="black" points="425.5,-354.5 570.5,-354.5 "/>
<text text-anchor="start" x="433.5" y="-339.3" font-family="Times,serif" font-size="14.00">id :integer</text>
<text text-anchor="start" x="433.5" y="-324.3" font-family="Times,serif" font-size="14.00">name :string</text>
<text text-anchor="start" x="433.5" y="-309.3" font-family="Times,serif" font-size="14.00">shortDescription :string</text>
<text text-anchor="start" x="433.5" y="-294.3" font-family="Times,serif" font-size="14.00">enabled :boolean</text>
<text text-anchor="start" x="433.5" y="-279.3" font-family="Times,serif" font-size="14.00">deleted :boolean</text>
<text text-anchor="start" x="433.5" y="-264.3" font-family="Times,serif" font-size="14.00">user_id :integer</text>
<text text-anchor="start" x="433.5" y="-249.3" font-family="Times,serif" font-size="14.00">created_at :datetime</text>
<text text-anchor="start" x="433.5" y="-234.3" font-family="Times,serif" font-size="14.00">updated_at :datetime</text>
</g>
<!-- ProductCategorySize -->
<g id="node4" class="node"><title>ProductCategorySize</title>
<path fill="none" stroke="black" d="M425,-0.5C425,-0.5 571,-0.5 571,-0.5 577,-0.5 583,-6.5 583,-12.5 583,-12.5 583,-169.5 583,-169.5 583,-175.5 577,-181.5 571,-181.5 571,-181.5 425,-181.5 425,-181.5 419,-181.5 413,-175.5 413,-169.5 413,-169.5 413,-12.5 413,-12.5 413,-6.5 419,-0.5 425,-0.5"/>
<text text-anchor="middle" x="498" y="-166.3" font-family="Times,serif" font-size="14.00">ProductCategorySize</text>
<polyline fill="none" stroke="black" points="413,-158.5 583,-158.5 "/>
<text text-anchor="start" x="421" y="-143.3" font-family="Times,serif" font-size="14.00">id :integer</text>
<text text-anchor="start" x="421" y="-128.3" font-family="Times,serif" font-size="14.00">prefixLabelOnline :string</text>
<text text-anchor="start" x="421" y="-113.3" font-family="Times,serif" font-size="14.00">prefixLabelPrint :string</text>
<text text-anchor="start" x="421" y="-98.3" font-family="Times,serif" font-size="14.00">prefixLabelPos :string</text>
<text text-anchor="start" x="421" y="-83.3" font-family="Times,serif" font-size="14.00">postfixLabelOnline :string</text>
<text text-anchor="start" x="421" y="-68.3" font-family="Times,serif" font-size="14.00">postfixLabelPrint :string</text>
<text text-anchor="start" x="421" y="-53.3" font-family="Times,serif" font-size="14.00">postfixLabelPos :string</text>
<text text-anchor="start" x="421" y="-38.3" font-family="Times,serif" font-size="14.00">productCategory_id :integer</text>
<text text-anchor="start" x="421" y="-23.3" font-family="Times,serif" font-size="14.00">created_at :datetime</text>
<text text-anchor="start" x="421" y="-8.3" font-family="Times,serif" font-size="14.00">updated_at :datetime</text>
</g>
<!-- ProductCategory&#45;&gt;ProductCategorySize -->
<g id="edge2" class="edge"><title>ProductCategory&#45;&gt;ProductCategorySize</title>
<path fill="none" stroke="#a28832" d="M498,-218.174C498,-209.432 498,-200.478 498,-191.572"/>
<ellipse fill="none" stroke="#a28832" cx="498" cy="-222.431" rx="4" ry="4"/>
<polygon fill="#a28832" stroke="#a28832" points="498,-191.551 502.5,-181.551 498,-186.551 498,-181.551 498,-181.551 498,-181.551 498,-186.551 493.5,-181.551 498,-191.551 498,-191.551"/>
</g>
<!-- User -->
<g id="node5" class="node"><title>User</title>
<path fill="none" stroke="black" d="M435,-438C435,-438 561,-438 561,-438 567,-438 573,-444 573,-450 573,-450 573,-652 573,-652 573,-658 567,-664 561,-664 561,-664 435,-664 435,-664 429,-664 423,-658 423,-652 423,-652 423,-450 423,-450 423,-444 429,-438 435,-438"/>
<text text-anchor="middle" x="498" y="-648.8" font-family="Times,serif" font-size="14.00">User</text>
<polyline fill="none" stroke="black" points="423,-641 573,-641 "/>
<text text-anchor="start" x="431" y="-625.8" font-family="Times,serif" font-size="14.00">id :integer</text>
<text text-anchor="start" x="431" y="-610.8" font-family="Times,serif" font-size="14.00">name :string</text>
<text text-anchor="start" x="431" y="-595.8" font-family="Times,serif" font-size="14.00">email :string</text>
<text text-anchor="start" x="431" y="-580.8" font-family="Times,serif" font-size="14.00">created_at :datetime</text>
<text text-anchor="start" x="431" y="-565.8" font-family="Times,serif" font-size="14.00">updated_at :datetime</text>
<text text-anchor="start" x="431" y="-550.8" font-family="Times,serif" font-size="14.00">password_digest :string</text>
<text text-anchor="start" x="431" y="-535.8" font-family="Times,serif" font-size="14.00">remember_digest :string</text>
<text text-anchor="start" x="431" y="-520.8" font-family="Times,serif" font-size="14.00">admin :boolean</text>
<text text-anchor="start" x="431" y="-505.8" font-family="Times,serif" font-size="14.00">activation_digest :string</text>
<text text-anchor="start" x="431" y="-490.8" font-family="Times,serif" font-size="14.00">activated :boolean</text>
<text text-anchor="start" x="431" y="-475.8" font-family="Times,serif" font-size="14.00">activated_at :datetime</text>
<text text-anchor="start" x="431" y="-460.8" font-family="Times,serif" font-size="14.00">reset_digest :string</text>
<text text-anchor="start" x="431" y="-445.8" font-family="Times,serif" font-size="14.00">reset_sent_at :datetime</text>
</g>
<!-- User&#45;&gt;ProductCategory -->
<g id="edge3" class="edge"><title>User&#45;&gt;ProductCategory</title>
<path fill="none" stroke="#39bcbf" d="M498,-429.562C498,-415.423 498,-401.231 498,-387.728"/>
<ellipse fill="none" stroke="#39bcbf" cx="498" cy="-433.703" rx="4" ry="4"/>
<polygon fill="#39bcbf" stroke="#39bcbf" points="498,-387.548 502.5,-377.548 498,-382.548 498,-377.548 498,-377.548 498,-377.548 498,-382.548 493.5,-377.548 498,-387.548 498,-387.548"/>
</g>
<!-- ProductAddOnList -->
<g id="node6" class="node"><title>ProductAddOnList</title>
<path fill="none" stroke="black" d="M649.5,-453C649.5,-453 788.5,-453 788.5,-453 794.5,-453 800.5,-459 800.5,-465 800.5,-465 800.5,-637 800.5,-637 800.5,-643 794.5,-649 788.5,-649 788.5,-649 649.5,-649 649.5,-649 643.5,-649 637.5,-643 637.5,-637 637.5,-637 637.5,-465 637.5,-465 637.5,-459 643.5,-453 649.5,-453"/>
<text text-anchor="middle" x="719" y="-633.8" font-family="Times,serif" font-size="14.00">ProductAddOnList</text>
<polyline fill="none" stroke="black" points="637.5,-626 800.5,-626 "/>
<text text-anchor="start" x="645.5" y="-610.8" font-family="Times,serif" font-size="14.00">id :integer</text>
<text text-anchor="start" x="645.5" y="-595.8" font-family="Times,serif" font-size="14.00">name :string</text>
<text text-anchor="start" x="645.5" y="-580.8" font-family="Times,serif" font-size="14.00">onlineViewLabel :string</text>
<text text-anchor="start" x="645.5" y="-565.8" font-family="Times,serif" font-size="14.00">posViewLabel :string</text>
<text text-anchor="start" x="645.5" y="-550.8" font-family="Times,serif" font-size="14.00">sortListByIndex :boolean</text>
<text text-anchor="start" x="645.5" y="-535.8" font-family="Times,serif" font-size="14.00">sortListByName :boolean</text>
<text text-anchor="start" x="645.5" y="-520.8" font-family="Times,serif" font-size="14.00">multipleSelection :boolean</text>
<text text-anchor="start" x="645.5" y="-505.8" font-family="Times,serif" font-size="14.00">enabled :boolean</text>
<text text-anchor="start" x="645.5" y="-490.8" font-family="Times,serif" font-size="14.00">user_id :integer</text>
<text text-anchor="start" x="645.5" y="-475.8" font-family="Times,serif" font-size="14.00">created_at :datetime</text>
<text text-anchor="start" x="645.5" y="-460.8" font-family="Times,serif" font-size="14.00">updated_at :datetime</text>
</g>
<!-- ProductAddOnListItem -->
<g id="node9" class="node"><title>ProductAddOnListItem</title>
<path fill="none" stroke="black" d="M682,-241.5C682,-241.5 848,-241.5 848,-241.5 854,-241.5 860,-247.5 860,-253.5 860,-253.5 860,-350.5 860,-350.5 860,-356.5 854,-362.5 848,-362.5 848,-362.5 682,-362.5 682,-362.5 676,-362.5 670,-356.5 670,-350.5 670,-350.5 670,-253.5 670,-253.5 670,-247.5 676,-241.5 682,-241.5"/>
<text text-anchor="middle" x="765" y="-347.3" font-family="Times,serif" font-size="14.00">ProductAddOnListItem</text>
<polyline fill="none" stroke="black" points="670,-339.5 860,-339.5 "/>
<text text-anchor="start" x="678" y="-324.3" font-family="Times,serif" font-size="14.00">id :integer</text>
<text text-anchor="start" x="678" y="-309.3" font-family="Times,serif" font-size="14.00">user_id :integer</text>
<text text-anchor="start" x="678" y="-294.3" font-family="Times,serif" font-size="14.00">product_add_on_list_id :integer</text>
<text text-anchor="start" x="678" y="-279.3" font-family="Times,serif" font-size="14.00">product_add_on_id :integer</text>
<text text-anchor="start" x="678" y="-264.3" font-family="Times,serif" font-size="14.00">created_at :datetime</text>
<text text-anchor="start" x="678" y="-249.3" font-family="Times,serif" font-size="14.00">updated_at :datetime</text>
</g>
<!-- ProductAddOnList&#45;&gt;ProductAddOnListItem -->
<g id="edge4" class="edge"><title>ProductAddOnList&#45;&gt;ProductAddOnListItem</title>
<path fill="none" stroke="#f3825e" d="M738.581,-444.858C743.113,-420.525 747.826,-395.218 751.995,-372.832"/>
<ellipse fill="none" stroke="#f3825e" cx="737.847" cy="-448.801" rx="4.00001" ry="4.00001"/>
<polygon fill="#f3825e" stroke="#f3825e" points="752.038,-372.598 758.293,-363.591 752.954,-367.682 753.869,-362.767 753.869,-362.767 753.869,-362.767 752.954,-367.682 749.445,-361.943 752.038,-372.598 752.038,-372.598"/>
</g>
<!-- ProductAddOn -->
<g id="node8" class="node"><title>ProductAddOn</title>
<path fill="none" stroke="black" d="M830.5,-453C830.5,-453 955.5,-453 955.5,-453 961.5,-453 967.5,-459 967.5,-465 967.5,-465 967.5,-637 967.5,-637 967.5,-643 961.5,-649 955.5,-649 955.5,-649 830.5,-649 830.5,-649 824.5,-649 818.5,-643 818.5,-637 818.5,-637 818.5,-465 818.5,-465 818.5,-459 824.5,-453 830.5,-453"/>
<text text-anchor="middle" x="893" y="-633.8" font-family="Times,serif" font-size="14.00">ProductAddOn</text>
<polyline fill="none" stroke="black" points="818.5,-626 967.5,-626 "/>
<text text-anchor="start" x="826.5" y="-610.8" font-family="Times,serif" font-size="14.00">id :integer</text>
<text text-anchor="start" x="826.5" y="-595.8" font-family="Times,serif" font-size="14.00">name :string</text>
<text text-anchor="start" x="826.5" y="-580.8" font-family="Times,serif" font-size="14.00">onlineViewLabel :string</text>
<text text-anchor="start" x="826.5" y="-565.8" font-family="Times,serif" font-size="14.00">printViewLabel :string</text>
<text text-anchor="start" x="826.5" y="-550.8" font-family="Times,serif" font-size="14.00">posViewLabel :string</text>
<text text-anchor="start" x="826.5" y="-535.8" font-family="Times,serif" font-size="14.00">displayIndex :integer</text>
<text text-anchor="start" x="826.5" y="-520.8" font-family="Times,serif" font-size="14.00">visibleOnline :boolean</text>
<text text-anchor="start" x="826.5" y="-505.8" font-family="Times,serif" font-size="14.00">visiblePos :boolean</text>
<text text-anchor="start" x="826.5" y="-490.8" font-family="Times,serif" font-size="14.00">user_id :integer</text>
<text text-anchor="start" x="826.5" y="-475.8" font-family="Times,serif" font-size="14.00">created_at :datetime</text>
<text text-anchor="start" x="826.5" y="-460.8" font-family="Times,serif" font-size="14.00">updated_at :datetime</text>
</g>
<!-- ProductAddOn&#45;&gt;ProductAddOnListItem -->
<g id="edge5" class="edge"><title>ProductAddOn&#45;&gt;ProductAddOnListItem</title>
<path fill="none" stroke="#3b5ff9" d="M838.886,-445.578C825.95,-420.614 812.461,-394.584 800.603,-371.702"/>
<ellipse fill="none" stroke="#3b5ff9" cx="840.754" cy="-449.182" rx="4.00002" ry="4.00002"/>
<polygon fill="#3b5ff9" stroke="#3b5ff9" points="800.573,-371.645 799.968,-360.696 798.273,-367.206 795.972,-362.767 795.972,-362.767 795.972,-362.767 798.273,-367.206 791.977,-364.837 800.573,-371.645 800.573,-371.645"/>
</g>
</g>
</svg>
