<?xml version="1.0" encoding="UTF-8" standalone="no"?>
<!DOCTYPE svg PUBLIC "-//W3C//DTD SVG 1.1//EN"
 "http://www.w3.org/Graphics/SVG/1.1/DTD/svg11.dtd">
<!-- Generated by graphviz version 2.36.0 (20140111.2315)
 -->
<!-- Title: models_diagram Pages: 1 -->
<svg width="769pt" height="230pt"
 viewBox="0.00 0.00 769.00 230.00" xmlns="http://www.w3.org/2000/svg" xmlns:xlink="http://www.w3.org/1999/xlink">
<g id="graph0" class="graph" transform="scale(1 1) rotate(0) translate(4 226)">
<title>models_diagram</title>
<polygon fill="white" stroke="none" points="-4,4 -4,-226 765,-226 765,4 -4,4"/>
<!-- _diagram_info -->
<g id="node1" class="node"><title>_diagram_info</title>
<text text-anchor="start" x="7" y="-207.6" font-family="Times,serif" font-size="13.00">Models diagram</text>
<text text-anchor="start" x="7" y="-193.6" font-family="Times,serif" font-size="13.00">Date: Dec 08 2014 &#45; 18:39</text>
<text text-anchor="start" x="7" y="-179.6" font-family="Times,serif" font-size="13.00">Migration version: 20141208181344</text>
<text text-anchor="start" x="7" y="-165.6" font-family="Times,serif" font-size="13.00">Generated by RailRoady 1.2.0</text>
<text text-anchor="start" x="7" y="-151.6" font-family="Times,serif" font-size="13.00">http://railroady.prestonlee.com</text>
</g>
<!-- ProductGroup -->
<g id="node2" class="node"><title>ProductGroup</title>
<ellipse fill="none" stroke="black" cx="157" cy="-90" rx="60.1672" ry="18"/>
<text text-anchor="middle" x="157" y="-86.3" font-family="Times,serif" font-size="14.00">ProductGroup</text>
</g>
<!-- ProductGroupAddOnList -->
<g id="node7" class="node"><title>ProductGroupAddOnList</title>
<ellipse fill="none" stroke="black" cx="157" cy="-18" rx="100.137" ry="18"/>
<text text-anchor="middle" x="157" y="-14.3" font-family="Times,serif" font-size="14.00">ProductGroupAddOnList</text>
</g>
<!-- ProductGroup&#45;&gt;ProductGroupAddOnList -->
<g id="edge1" class="edge"><title>ProductGroup&#45;&gt;ProductGroupAddOnList</title>
<path fill="none" stroke="#2b7fd0" d="M157,-63.6398C157,-58.0629 157,-52.1319 157,-46.4761"/>
<ellipse fill="none" stroke="#2b7fd0" cx="157" cy="-67.6966" rx="4" ry="4"/>
<polygon fill="#2b7fd0" stroke="#2b7fd0" points="157,-46.1043 161.5,-36.1043 157,-41.1043 157,-36.1043 157,-36.1043 157,-36.1043 157,-41.1043 152.5,-36.1044 157,-46.1043 157,-46.1043"/>
</g>
<!-- ProductCategory -->
<g id="node3" class="node"><title>ProductCategory</title>
<ellipse fill="none" stroke="black" cx="301" cy="-183" rx="70.2909" ry="18"/>
<text text-anchor="middle" x="301" y="-179.3" font-family="Times,serif" font-size="14.00">ProductCategory</text>
</g>
<!-- ProductCategory&#45;&gt;ProductGroup -->
<g id="edge3" class="edge"><title>ProductCategory&#45;&gt;ProductGroup</title>
<path fill="none" stroke="#f979a8" d="M269.128,-161.859C245.783,-147.106 214.17,-127.128 190.461,-112.146"/>
<ellipse fill="none" stroke="#f979a8" cx="272.536" cy="-164.012" rx="4.00002" ry="4.00002"/>
<polygon fill="#f979a8" stroke="#f979a8" points="190.249,-112.012 184.199,-102.865 186.022,-109.34 181.795,-106.669 181.795,-106.669 181.795,-106.669 186.022,-109.34 179.391,-110.473 190.249,-112.012 190.249,-112.012"/>
</g>
<!-- ProductCategorySize -->
<g id="node4" class="node"><title>ProductCategorySize</title>
<ellipse fill="none" stroke="black" cx="321" cy="-90" rx="85.2138" ry="18"/>
<text text-anchor="middle" x="321" y="-86.3" font-family="Times,serif" font-size="14.00">ProductCategorySize</text>
</g>
<!-- ProductCategory&#45;&gt;ProductCategorySize -->
<g id="edge2" class="edge"><title>ProductCategory&#45;&gt;ProductCategorySize</title>
<path fill="none" stroke="#b688aa" d="M306.554,-156.729C309.192,-144.725 312.349,-130.362 315.038,-118.129"/>
<ellipse fill="none" stroke="#b688aa" cx="305.621" cy="-160.977" rx="4.00001" ry="4.00001"/>
<polygon fill="#b688aa" stroke="#b688aa" points="315.108,-117.807 321.65,-109.006 316.182,-112.923 317.255,-108.04 317.255,-108.04 317.255,-108.04 316.182,-112.923 312.86,-107.074 315.108,-117.807 315.108,-117.807"/>
</g>
<!-- User -->
<g id="node5" class="node"><title>User</title>
<ellipse fill="none" stroke="black" cx="416" cy="-183" rx="26.949" ry="18"/>
<text text-anchor="middle" x="416" y="-179.3" font-family="Times,serif" font-size="14.00">User</text>
</g>
<!-- ProductAddOnList -->
<g id="node6" class="node"><title>ProductAddOnList</title>
<ellipse fill="none" stroke="black" cx="539" cy="-183" rx="77.0154" ry="18"/>
<text text-anchor="middle" x="539" y="-179.3" font-family="Times,serif" font-size="14.00">ProductAddOnList</text>
</g>
<!-- ProductAddOnListItem -->
<g id="node9" class="node"><title>ProductAddOnListItem</title>
<ellipse fill="none" stroke="black" cx="618" cy="-90" rx="94.3628" ry="18"/>
<text text-anchor="middle" x="618" y="-86.3" font-family="Times,serif" font-size="14.00">ProductAddOnListItem</text>
</g>
<!-- ProductAddOnList&#45;&gt;ProductAddOnListItem -->
<g id="edge4" class="edge"><title>ProductAddOnList&#45;&gt;ProductAddOnListItem</title>
<path fill="none" stroke="#21aa57" d="M558.747,-159.254C570.314,-145.93 584.924,-129.1 596.743,-115.486"/>
<ellipse fill="none" stroke="#21aa57" cx="556.112" cy="-162.289" rx="4.00002" ry="4.00002"/>
<polygon fill="#21aa57" stroke="#21aa57" points="596.779,-115.445 606.733,-110.843 600.057,-111.669 603.335,-107.893 603.335,-107.893 603.335,-107.893 600.057,-111.669 599.936,-104.943 596.779,-115.445 596.779,-115.445"/>
</g>
<!-- ProductAddOn -->
<g id="node8" class="node"><title>ProductAddOn</title>
<ellipse fill="none" stroke="black" cx="698" cy="-183" rx="63.5411" ry="18"/>
<text text-anchor="middle" x="698" y="-179.3" font-family="Times,serif" font-size="14.00">ProductAddOn</text>
</g>
<!-- ProductAddOn&#45;&gt;ProductAddOnListItem -->
<g id="edge5" class="edge"><title>ProductAddOn&#45;&gt;ProductAddOnListItem</title>
<path fill="none" stroke="#027a61" d="M678.003,-159.254C666.29,-145.93 651.494,-129.1 639.526,-115.486"/>
<ellipse fill="none" stroke="#027a61" cx="680.686" cy="-162.305" rx="4.00002" ry="4.00002"/>
<polygon fill="#027a61" stroke="#027a61" points="639.454,-115.404 636.231,-104.922 636.152,-111.648 632.851,-107.893 632.851,-107.893 632.851,-107.893 636.152,-111.648 629.471,-110.864 639.454,-115.404 639.454,-115.404"/>
</g>
</g>
</svg>
